<?xml version="1.0" encoding="UTF-8" standalone="no"?>
<!-- Generator: Adobe Illustrator 11.0, SVG Export Plug-In  -->

<!-- hand edited from http://commons.wikimedia.org/wiki/Image:1_9_2_44.svg -->

<svg
   xmlns:dc="http://purl.org/dc/elements/1.1/"
   xmlns:cc="http://creativecommons.org/ns#"
   xmlns:rdf="http://www.w3.org/1999/02/22-rdf-syntax-ns#"
   xmlns:svg="http://www.w3.org/2000/svg"
   xmlns="http://www.w3.org/2000/svg"
   xmlns:sodipodi="http://sodipodi.sourceforge.net/DTD/sodipodi-0.dtd"
   xmlns:inkscape="http://www.inkscape.org/namespaces/inkscape"
   width="50"
   height="50"
   viewBox="140 90 33.75 33.75"
   xml:space="preserve"
   id="svg2"
   version="1.0"
   sodipodi:docname="N_Administrative.svg"
   inkscape:version="0.92.3 (unknown)"><title
   id="title989">NACE Section N Classification Visual</title><defs
   id="defs5729"><filter
     style="color-interpolation-filters:sRGB"
     inkscape:label="Cross-smooth"
     id="filter4556"><feGaussianBlur
       in="SourceGraphic"
       stdDeviation="10"
       result="blur1"
       id="feGaussianBlur4540" /><feComposite
       in="blur1"
       in2="blur1"
       operator="in"
       result="composite1"
       id="feComposite4542" /><feComposite
       k4="0"
       k3="0"
       k1="0"
       in="composite1"
       in2="composite1"
       k2="1"
       operator="arithmetic"
       result="composite2"
       id="feComposite4544" /><feColorMatrix
       in="composite2"
       values="1 0 0 0 0 0 1 0 0 0 0 0 1 0 0 0 0 0 10 0 "
       result="colormatrix1"
       id="feColorMatrix4546" /><feGaussianBlur
       stdDeviation="1"
       result="blur2"
       id="feGaussianBlur4548" /><feColorMatrix
       in="blur2"
       values="1 0 0 0 0 0 1 0 0 0 0 0 1 0 0 0 0 0 5 -1 "
       result="colormatrix2"
       id="feColorMatrix4550" /><feBlend
       in="SourceGraphic"
       in2="colormatrix2"
       stdDeviation="17"
       mode="normal"
       result="blend"
       id="feBlend4552" /><feComposite
       in="blend"
       in2="colormatrix2"
       operator="in"
       result="composite3"
       id="feComposite4554" /></filter></defs><sodipodi:namedview
   pagecolor="#ffffff"
   bordercolor="#666666"
   borderopacity="1"
   objecttolerance="10"
   gridtolerance="10"
   guidetolerance="10"
   inkscape:pageopacity="0"
   inkscape:pageshadow="2"
   inkscape:window-width="1853"
   inkscape:window-height="1021"
   id="namedview5727"
   showgrid="false"
   inkscape:zoom="6.675088"
   inkscape:cx="-28.440673"
   inkscape:cy="10.034051"
   inkscape:window-x="0"
   inkscape:window-y="0"
   inkscape:window-maximized="0"
   inkscape:current-layer="g11986" /><metadata
   id="metadata19"><rdf:RDF><cc:Work
       rdf:about=""><cc:license
         rdf:resource="http://creativecommons.org/licenses/by-sa/2.5/" /><dc:format>image/svg+xml</dc:format><dc:type
         rdf:resource="http://purl.org/dc/dcmitype/StillImage" /><dc:title>NACE Section N Classification Visual</dc:title><dc:creator><cc:Agent><dc:title>Open Risk</dc:title></cc:Agent></dc:creator><dc:publisher><cc:Agent><dc:title>https://www.openriskmanagement.com</dc:title></cc:Agent></dc:publisher><dc:identifier>N_Administrative_Circular</dc:identifier><dc:date>2018</dc:date><dc:rights><cc:Agent><dc:title>Creative Commons Attribution + Share-Alike  (CC-BY-SA)</dc:title></cc:Agent></dc:rights><dc:description>Person with headset as representative of administrative and support service activities</dc:description></cc:Work><cc:License
       rdf:about="http://creativecommons.org/licenses/by-sa/2.5/"><cc:permits
         rdf:resource="http://web.resource.org/cc/Reproduction" /><cc:permits
         rdf:resource="http://web.resource.org/cc/Distribution" /><cc:requires
         rdf:resource="http://web.resource.org/cc/Notice" /><cc:requires
         rdf:resource="http://web.resource.org/cc/Attribution" /><cc:permits
         rdf:resource="http://web.resource.org/cc/DerivativeWorks" /><cc:requires
         rdf:resource="http://web.resource.org/cc/ShareAlike" /></cc:License></rdf:RDF></metadata>
	
<g
   id="g11986"
   transform="matrix(0.14398343,0,0,0.15557073,109.34664,83.778741)"><g
     id="g838"><ellipse
       ry="104.13195"
       rx="112.51214"
       cy="148.06294"
       cx="330.89523"
       id="path864"
       style="opacity:1;fill:#ffffff;fill-opacity:1;stroke:#000000;stroke-width:9.02169418;stroke-miterlimit:4;stroke-dasharray:none;stroke-dashoffset:0;stroke-opacity:1" /><path
       sodipodi:nodetypes="scccsccccccccccccccccccccccccccccscccccccssscscssccccccccccsccccscccccccccccccccccsssscccccccccccccccccccccccccccccccccccccccc"
       style="stroke-width:1.75617158"
       id="path2-89"
       d="m 322.68065,144.80354 c 0,1.85836 1.46042,3.54788 3.46838,3.88577 -2.00796,-0.33767 -3.46838,-2.02741 -3.46838,-3.88577 -0.18265,-1.85854 1.46042,-3.54802 3.46838,-3.88591 -2.00796,0.33767 -3.46838,2.02737 -3.46838,3.88591 z m 11.86555,-2.70328 c -0.54784,-0.50699 -1.46036,-1.01371 -2.37313,-1.18263 0.91277,0.16905 1.64297,0.50698 2.37313,1.18263 z m 8.94482,-4.22376 v 0 l -9.12739,4.22376 v 0 z m 3.10325,4.22376 -12.77823,5.91328 -0.18266,0.16905 c 0.18266,0 0.36484,0 0.36484,-0.16905 z m 13.50853,-6.25117 -13.50853,6.25117 -12.77823,5.91328 c 0,0 -0.18266,0 -0.36484,0.16905 0.18266,0 0.18266,0 0.18266,-0.16905 l 12.77828,-5.91328 z m -25.73917,6.25117 c -0.54783,-0.50699 -1.46031,-1.01371 -2.19056,-1.18263 0.91277,0.16905 1.64297,0.50698 2.19056,1.18263 z m 50.0179,29.56636 v 0.67577 c -0.36484,35.81752 0.0892,55.83498 0.0892,55.83498 l -106.33234,-0.83853 c 0,0 9.2e-4,-19.17893 -0.36406,-54.99645 v -0.67577 c 0,-8.78549 -1.09529,-15.03665 17.88962,-19.76726 1.64289,-0.50699 6.02399,-2.19634 7.4844,-2.70319 l 13.32592,-7.60272 c 1.46037,-2.02742 2.37314,-4.22376 3.1033,-6.08221 -1.46042,-1.0137 -3.1033,-2.19637 -5.11131,-3.71694 -6.75424,-5.06854 -5.29392,-8.61646 -7.11937,-13.68496 -0.73016,1.18267 -1.64288,1.01371 -2.92068,0.16905 -2.00802,1.68944 -4.56372,2.53419 -7.30194,2.53419 -6.02403,0 -10.95282,-4.5616 -10.95282,-9.96803 v -6.92699 c 0,-4.730562 3.46838,-8.616422 8.21465,-9.799092 1.09529,-19.26036 14.9688,-31.255885 36.87445,-31.255885 21.90566,0 35.77927,11.995525 36.69199,31.593765 4.56366,1.18263 8.03198,5.0685 8.03198,9.630182 v 6.92695 c 0,4.7306 -3.46832,8.61647 -8.21454,9.63017 v 0.84479 l -2.00802,7.94065 c -0.54778,2.53422 -2.92078,5.23751 -5.47638,6.25116 v 0 0 l -13.50853,6.25113 -12.77827,5.91328 -0.18266,0.16906 h -0.36484 -0.18266 c -0.18266,0 -0.36484,0 -0.73022,0.16905 -0.91271,0.16906 -2.5556,0.16906 -5.47643,0.50699 v 0 h -0.73016 c -2.00801,-0.33767 -3.46838,-2.02737 -3.46838,-3.88578 0,-1.85849 1.46037,-3.54797 3.46838,-3.88591 h 0.73016 4.38115 0.91273 c 0.91277,0.16905 1.64293,0.50703 2.19056,1.18267 v 0 0 l 9.12734,-4.22446 14.23869,-6.58905 c 1.09528,-0.50699 2.19057,-1.85845 2.55565,-2.87216 l 1.82545,-7.77173 c -1.64293,-0.33766 -3.28582,-1.18263 -4.56367,-2.19633 -1.09528,1.0137 -2.19057,1.18263 -2.92074,0 -1.64292,5.06853 -0.36483,8.61647 -7.11936,13.68496 -2.00801,1.35164 -3.46838,2.70319 -5.11126,3.7169 0.18266,0.33766 0.18266,0.67582 0.36484,1.01371 l -8.39717,3.71693 c -0.91272,-0.67585 -2.00802,-1.0137 -3.28587,-1.0137 h -4.38109 c -3.10331,0 -5.659,2.36526 -5.659,5.23746 0,2.87211 2.55569,5.23742 5.659,5.23742 h 0.18266 c 6.02408,-0.33767 6.9368,-0.67578 7.30188,-0.84475 l 13.50847,-6.25117 11.1354,6.42014 c 1.46037,0.50703 5.65895,2.19629 7.4844,2.70319 18.98491,4.56165 17.88961,10.81281 17.88961,19.59829 z m -19.5325,-54.23306 c 4.19859,1.35156 8.94475,-1.5206 9.4924,-6.75807 0.18266,-2.02741 0.18266,-4.22379 0,-6.25116 -0.36484,-5.068542 -5.29381,-8.109612 -9.4924,-6.758022 2.19057,6.420142 2.19057,13.178162 0,19.767252 z M 348.78484,72.492717 c 5.65896,3.547932 10.40523,9.968065 10.77026,20.780871 0,0.67587 0,1.35164 0.18266,2.02742 1.46037,-0.67578 2.92079,-1.18263 4.56367,-1.18263 -0.73016,-11.48863 -6.20655,-18.415572 -15.51649,-21.625661 z m -51.66078,25.173591 c -4.19859,-1.35159 -8.94477,1.52061 -9.49241,6.758022 -0.18266,2.02737 -0.18266,4.22375 0,6.25116 0.36484,5.06851 5.29382,8.10963 9.49241,6.75807 -2.19058,-6.58909 -2.19058,-13.34711 0,-19.767252 z m 15.88162,-25.004625 c -8.94482,3.378966 -14.23869,10.305998 -14.78633,21.456695 1.64293,0.16905 3.10334,0.50703 4.3811,1.18263 0,-0.67578 0,-1.35155 0.18266,-2.02742 0.18266,-10.812806 4.74623,-16.895007 10.22266,-20.611905 z m 21.54052,69.438577 v 0 c -0.73016,-0.50699 -1.46036,-1.01371 -2.37313,-1.18263 0.91277,0.16905 1.64297,0.50698 2.37313,1.18263 z m 25.5566,-6.25117 -13.50853,6.25117 -12.77823,5.91328 c 0,0 -0.18266,0 -0.36484,0.16905 0.18266,0 0.18266,0 0.18266,-0.16905 l 12.77828,-5.91328 z"
       inkscape:connector-curvature="0" /></g></g></svg>