<?xml version="1.0" encoding="UTF-8" standalone="no"?>
<!-- Generator: Adobe Illustrator 11.0, SVG Export Plug-In  -->

<!-- hand edited from http://commons.wikimedia.org/wiki/Image:1_9_2_44.svg -->

<svg
   xmlns:dc="http://purl.org/dc/elements/1.1/"
   xmlns:cc="http://creativecommons.org/ns#"
   xmlns:rdf="http://www.w3.org/1999/02/22-rdf-syntax-ns#"
   xmlns:svg="http://www.w3.org/2000/svg"
   xmlns="http://www.w3.org/2000/svg"
   xmlns:sodipodi="http://sodipodi.sourceforge.net/DTD/sodipodi-0.dtd"
   xmlns:inkscape="http://www.inkscape.org/namespaces/inkscape"
   width="50"
   height="50"
   viewBox="140 90 33.75 33.75"
   xml:space="preserve"
   id="svg2"
   version="1.0"
   sodipodi:docname="G_Trading.svg"
   inkscape:version="0.92.3 (2405546, 2018-03-11)"><title
   id="title989">NACE Section G Classification Visual</title><defs
   id="defs5729" /><sodipodi:namedview
   pagecolor="#ffffff"
   bordercolor="#666666"
   borderopacity="1"
   objecttolerance="10"
   gridtolerance="10"
   guidetolerance="10"
   inkscape:pageopacity="0"
   inkscape:pageshadow="2"
   inkscape:window-width="1853"
   inkscape:window-height="1012"
   id="namedview5727"
   showgrid="false"
   inkscape:zoom="2.36"
   inkscape:cx="-228.6017"
   inkscape:cy="-20.338978"
   inkscape:window-x="0"
   inkscape:window-y="0"
   inkscape:window-maximized="0"
   inkscape:current-layer="g11986" /><metadata
   id="metadata19"><rdf:RDF><cc:Work
       rdf:about=""><cc:license
         rdf:resource="http://creativecommons.org/licenses/by-sa/2.5/" /><dc:format>image/svg+xml</dc:format><dc:type
         rdf:resource="http://purl.org/dc/dcmitype/StillImage" /><dc:title>NACE Section G Classification Visual</dc:title><dc:creator><cc:Agent><dc:title>Open Risk</dc:title></cc:Agent></dc:creator><dc:publisher><cc:Agent><dc:title>https://www.openriskmanagement.com</dc:title></cc:Agent></dc:publisher><dc:identifier>G_Trading_Square</dc:identifier><dc:date>2018</dc:date><dc:rights><cc:Agent><dc:title>Creative Commons Attribution + Share-Alike  (CC-BY-SA)</dc:title></cc:Agent></dc:rights><dc:description>Shop and cart as representative of wholesale and retail trading business sector</dc:description></cc:Work><cc:License
       rdf:about="http://creativecommons.org/licenses/by-sa/2.5/"><cc:permits
         rdf:resource="http://web.resource.org/cc/Reproduction" /><cc:permits
         rdf:resource="http://web.resource.org/cc/Distribution" /><cc:requires
         rdf:resource="http://web.resource.org/cc/Notice" /><cc:requires
         rdf:resource="http://web.resource.org/cc/Attribution" /><cc:permits
         rdf:resource="http://web.resource.org/cc/DerivativeWorks" /><cc:requires
         rdf:resource="http://web.resource.org/cc/ShareAlike" /></cc:License></rdf:RDF></metadata>
	
<g
   id="g11986"
   transform="matrix(0.14398343,0,0,0.15557073,109.34664,83.778741)"><g
     id="g7451"><path
       transform="matrix(12.430403,3.6446806,-3.9379922,11.504555,689.59706,-679.05648)"
       d="m 2.8782125,83.503339 c -0.1537059,0.169885 -10.6788155,3.561778 -10.9027935,3.513608 -0.223978,-0.04817 -8.423998,-7.467237 -8.49427,-7.685293 -0.07027,-0.218056 2.254817,-11.029014 2.408523,-11.1989 0.153706,-0.169885 10.6788153,-3.561778 10.9027933,-3.513607 0.223978,0.04817 8.4239982,7.467236 8.4942703,7.685292 0.070272,0.218056 -2.2548173,11.029014 -2.4085231,11.1989 z"
       inkscape:randomized="0"
       inkscape:rounded="0.02"
       inkscape:flatsided="true"
       sodipodi:arg2="1.2590385"
       sodipodi:arg1="0.73543977"
       sodipodi:r2="5.7274847"
       sodipodi:r1="11.45497"
       sodipodi:cy="75.818047"
       sodipodi:cx="-5.6160579"
       sodipodi:sides="6"
       id="path872-7"
       style="opacity:1;fill:#ffffff;fill-opacity:1;stroke:#000000;stroke-width:0.87425816;stroke-miterlimit:4;stroke-dasharray:none;stroke-opacity:1"
       sodipodi:type="star" /><g
       id="g5751"><path
         style="fill:#000000;stroke-width:0.8399334"
         inkscape:connector-curvature="0"
         id="path17795"
         d="m 350.80501,158.32504 a 1.746154,1.616096 0 0 1 1.74615,-1.6161 h 13.96924 a 1.746154,1.616096 0 0 1 1.74615,1.6161 v 6.46438 h 61.11539 v 22.62534 c 0,0.80805 -0.87308,1.6161 -1.74615,1.6161 l -50.63847,13.73682 c -0.87308,0.80804 -0.87308,1.61609 0,2.42414 h 52.38462 v 5.65634 a 1.746154,1.616096 0 0 1 -1.74615,1.61609 H 370.0127 a 1.746154,1.616096 0 0 1 -1.74615,-1.61609 v -5.65634 l -8.73077,-40.4024 h -8.73077 z" /><ellipse
         style="fill:#000000;stroke-width:0.8399334"
         id="circle17797"
         cy="221.35278"
         cx="372.63193"
         rx="8.7307701"
         ry="8.0804806" /><ellipse
         style="fill:#000000;stroke-width:0.8399334"
         id="circle17799"
         cy="221.35278"
         cx="416.2858"
         rx="8.7307701"
         ry="8.0804806" /><path
         inkscape:connector-curvature="0"
         d="m 235.05112,230.42379 v -6.77672 h 7.32207 V 169.4334 c 0,0 -3.66103,3.43444 -7.32207,3.43444 -3.66104,0 -7.32208,-3.43444 -7.32208,-3.43444 l 16.10857,-39.3049 h 20.50181 v -2.71069 h -7.32207 v -18.97478 h 58.5766 v 18.97478 h -7.32208 v 2.71069 h 20.50182 l 16.10856,39.3049 c 0,0 -3.66103,3.43444 -7.32207,3.43444 -3.66104,0 -7.32208,-3.43444 -7.32208,-3.43444 v 54.21367 h 7.32208 v 6.77672 z m 36.61038,-6.77672 v -40.66025 h -21.96623 v 40.66025 z m 14.64415,-40.66025 v 20.33013 h 36.61038 v -20.33013 z m -21.96623,-47.43696 h -14.64415 v 33.88354 c 0,0 3.66104,3.43444 7.32208,3.43444 3.66104,0 7.32207,-3.43444 7.32207,-3.43444 z m 14.64415,0 v 33.88354 c 0,0 3.66104,3.43444 7.32208,3.43444 3.66104,0 7.32207,-3.43444 7.32207,-3.43444 v -33.88354 z m 29.2883,0 v 33.88354 c 0,0 3.66104,3.43444 7.32208,3.43444 3.66104,0 7.32208,-3.43444 7.32208,-3.43444 v -33.88354 z m -38.07479,-5.42136 v -2.71069 h 32.21714 v 2.71069 z"
         style="fill:#000000;fill-opacity:1;stroke:none;stroke-width:0.4226478"
         id="path18414" /></g></g></g></svg>