<?xml version="1.0" encoding="UTF-8" standalone="no"?>
<!-- Generator: Adobe Illustrator 11.0, SVG Export Plug-In  -->

<!-- hand edited from http://commons.wikimedia.org/wiki/Image:1_9_2_44.svg -->

<svg
   width="50"
   height="50"
   viewBox="140 90 33.75 33.75"
   xml:space="preserve"
   id="svg2"
   version="1.0"
   sodipodi:docname="J_Publishing.svg"
   inkscape:version="1.4 (e7c3feb100, 2024-10-09)"
   xmlns:inkscape="http://www.inkscape.org/namespaces/inkscape"
   xmlns:sodipodi="http://sodipodi.sourceforge.net/DTD/sodipodi-0.dtd"
   xmlns="http://www.w3.org/2000/svg"
   xmlns:svg="http://www.w3.org/2000/svg"
   xmlns:rdf="http://www.w3.org/1999/02/22-rdf-syntax-ns#"
   xmlns:cc="http://creativecommons.org/ns#"
   xmlns:dc="http://purl.org/dc/elements/1.1/"><title
   id="title989">NACE Section A Classification Visual</title><defs
   id="defs5729" /><sodipodi:namedview
   pagecolor="#ffffff"
   bordercolor="#666666"
   borderopacity="1"
   objecttolerance="10"
   gridtolerance="10"
   guidetolerance="10"
   inkscape:pageopacity="0"
   inkscape:pageshadow="2"
   inkscape:window-width="1853"
   inkscape:window-height="1008"
   id="namedview5727"
   showgrid="false"
   inkscape:zoom="4.72"
   inkscape:cx="-5.8262712"
   inkscape:cy="-3.3898305"
   inkscape:window-x="0"
   inkscape:window-y="0"
   inkscape:window-maximized="0"
   inkscape:current-layer="svg2"
   inkscape:showpageshadow="2"
   inkscape:pagecheckerboard="0"
   inkscape:deskcolor="#d1d1d1" /><metadata
   id="metadata19"><rdf:RDF><cc:Work
       rdf:about=""><cc:license
         rdf:resource="http://creativecommons.org/licenses/by-sa/2.5/" /><dc:format>image/svg+xml</dc:format><dc:type
         rdf:resource="http://purl.org/dc/dcmitype/StillImage" /><dc:title>NACE Section A Classification Visual</dc:title><dc:creator><cc:Agent><dc:title>Open Risk</dc:title></cc:Agent></dc:creator><dc:publisher><cc:Agent><dc:title>https://www.openriskmanagement.com</dc:title></cc:Agent></dc:publisher><dc:identifier>A_Agriculture_Square</dc:identifier><dc:date>2018</dc:date><dc:rights><cc:Agent><dc:title>Creative Commons Attribution + Share-Alike  (CC-BY-SA)</dc:title></cc:Agent></dc:rights><dc:description>Tree, wheat and fish representing diverse agricultural activities</dc:description></cc:Work><cc:License
       rdf:about="http://creativecommons.org/licenses/by-sa/2.5/"><cc:permits
         rdf:resource="http://web.resource.org/cc/Reproduction" /><cc:permits
         rdf:resource="http://web.resource.org/cc/Distribution" /><cc:requires
         rdf:resource="http://web.resource.org/cc/Notice" /><cc:requires
         rdf:resource="http://web.resource.org/cc/Attribution" /><cc:permits
         rdf:resource="http://web.resource.org/cc/DerivativeWorks" /><cc:requires
         rdf:resource="http://web.resource.org/cc/ShareAlike" /></cc:License></rdf:RDF></metadata>
	
<path
   transform="matrix(1.7897721,0.56700562,-0.56700562,1.789772,211.48881,-25.065646)"
   d="m 2.8782125,83.503339 c -0.1537059,0.169885 -10.6788155,3.561778 -10.9027935,3.513608 -0.223978,-0.04817 -8.423998,-7.467237 -8.49427,-7.685293 -0.07027,-0.218056 2.254817,-11.029014 2.408523,-11.1989 0.153706,-0.169885 10.6788153,-3.561778 10.9027933,-3.513607 0.223978,0.04817 8.4239982,7.467236 8.4942703,7.685292 0.070272,0.218056 -2.2548173,11.029014 -2.4085231,11.1989 z"
   inkscape:randomized="0"
   inkscape:rounded="0.02"
   inkscape:flatsided="true"
   sodipodi:arg2="1.2590385"
   sodipodi:arg1="0.73543977"
   sodipodi:r2="5.7274847"
   sodipodi:r1="11.45497"
   sodipodi:cy="75.818047"
   sodipodi:cx="-5.6160579"
   sodipodi:sides="6"
   id="path872-7-2"
   style="fill:#ffffff;fill-opacity:1;stroke:#000000;stroke-width:0.874258;stroke-miterlimit:4;stroke-dasharray:none;stroke-opacity:1"
   sodipodi:type="star" /><g
   id="g2"
   transform="matrix(0.14398343,0,0,0.15557073,111.64018,84.564979)"><path
     style="fill:#000000;stroke-width:0.326697"
     d="m 341.04943,137.38061 c -0.25836,-0.0122 -4.06713,-0.12316 -8.46354,-0.24607 -4.3964,-0.12296 -10.49537,-0.29433 -13.55336,-0.38079 l -5.56008,-0.15729 -1.39183,-1.78473 -1.39176,-1.78481 -1.59011,-0.0476 c -0.87454,-0.0264 -2.93027,-0.0791 -4.56809,-0.11731 -1.63783,-0.0379 -3.52451,-0.0861 -4.19257,-0.10652 -0.66813,-0.0199 -2.12087,-0.0579 -3.22856,-0.0837 l -2.01392,-0.0469 -0.0417,0.17266 c -0.0208,0.0948 -0.19794,0.85079 -0.38476,1.67967 -0.18752,0.82892 -0.35907,1.5238 -0.3806,1.54423 -0.0695,0.0617 -14.64807,-0.38574 -14.71273,-0.45156 -0.0347,-0.0328 -0.23059,-0.79099 -0.43894,-1.6829 -0.20836,-0.89193 -0.41533,-1.63236 -0.46047,-1.64532 -0.0486,-0.0128 -0.70793,-0.045 -1.47295,-0.0724 l -1.39099,-0.0489 0.0139,-14.47993 c 0.005,-7.96403 0.0278,-16.81365 0.0625,-19.66586 l 0.0556,-5.185848 1.36988,-2.538548 1.36981,-2.53853 7.48391,-0.119816 c 4.11624,-0.06582 8.28686,-0.126245 9.26801,-0.134152 1.53115,-0.01286 1.80465,-0.0315 1.93015,-0.134151 0.0806,-0.06569 1.9048,-2.223927 4.05422,-4.795946 2.14955,-2.572008 4.16409,-4.92576 4.47683,-5.23055 1.28494,-1.252547 3.16002,-2.182716 5.17504,-2.567181 1.03373,-0.197261 1.8907,-0.248826 5.97215,-0.359284 2.21976,-0.06004 4.61775,-0.127626 5.32901,-0.150111 0.71112,-0.02237 3.67341,-0.103863 6.58284,-0.180876 2.90922,-0.07707 5.87151,-0.157774 6.5827,-0.179533 3.66813,-0.112193 6.83509,-0.190659 6.85412,-0.169967 0.0208,0.01286 0.43616,1.312586 0.94268,2.888307 0.50631,1.575704 0.93594,2.879825 0.95386,2.89799 0.0347,0.03638 6.84419,-6.243392 6.84419,-6.312475 0,-0.02295 -0.24795,-0.168123 -0.55076,-0.321699 -0.82926,-0.420697 -1.86292,-1.179421 -2.37389,-1.742568 -1.388,-1.529534 -1.75214,-3.618424 -0.97684,-5.602818 1.01497,-2.59767 4.53899,-4.772874 8.66432,-5.347967 0.73724,-0.102809 1.55407,-0.141621 10.0481,-0.477815 5.04433,-0.199581 6.13988,-0.131156 8.24963,0.515926 2.92603,0.897436 5.01356,2.543717 5.74795,4.532829 0.18058,0.490034 0.21947,0.732412 0.24656,1.559383 0.0208,0.696667 -0.002,1.128499 -0.0854,1.496667 -0.80599,3.527601 -4.63053,5.608498 -11.63876,6.332469 -2.31062,0.238701 -4.24528,0.307885 -7.8873,0.282218 l -3.44796,-0.02404 -3.7421,5.763523 -3.74217,5.763487 v 5.27486 c 0,2.90111 0.0208,5.284895 0.0625,5.297237 0.0278,0.01221 1.3196,0.0135 2.8604,0.0038 l 2.80164,-0.01928 v -0.496044 -0.495916 l 0.49033,-0.04371 c 0.26948,-0.02378 1.53886,-0.04564 2.82109,-0.04885 l 2.33145,-0.0053 v 0.512178 0.512243 l 4.05547,-0.01607 c 2.23046,-0.009 4.39738,-0.03407 4.81506,-0.05657 l 0.75974,-0.04114 5.62259,-4.895747 c 3.09244,-2.692678 5.69968,-4.952113 5.794,-5.021027 l 0.17155,-0.12528 0.0556,6.544152 c 0.0208,3.599265 0.0417,13.48114 0.0208,21.95969 l -0.0208,15.41556 -5.44653,-4.0079 -5.44639,-4.00795 -1.76332,-0.004 c -0.96977,-0.004 -2.0101,-0.0193 -2.3118,-0.0366 -0.30142,-0.018 -1.84458,-0.0495 -3.42852,-0.0699 l -2.87998,-0.0373 v 0.66375 0.66376 l -2.56661,-0.0476 c -1.41149,-0.0263 -2.68108,-0.0476 -2.82109,-0.0476 h -0.25489 v -0.65277 -0.65277 l -0.52854,-3.2e-4 c -0.29031,-2.1e-4 -1.57809,-0.0212 -2.86039,-0.0476 l -2.33138,-0.0469 v 4.92849 4.92851 l -1.77479,-0.004 -1.77486,-0.004 -1.732,2.88127 -1.73214,2.88127 -0.54868,-0.0122 c -0.30142,-0.006 -0.76009,-0.0225 -1.0188,-0.0341 z m -8.2158,-13.09608 c -0.0208,-1.16683 -0.0556,-8.54711 -0.0556,-16.40063 l -8.4e-4,-14.279169 -2.33144,0.045 c -1.28223,0.02378 -4.44725,0.06171 -7.03331,0.08209 -2.58613,0.01993 -5.67176,0.05335 -6.85711,0.07251 -1.18527,0.01928 -4.60601,0.05207 -7.6015,0.07302 -2.99562,0.02057 -5.95776,0.05335 -6.58284,0.07167 -0.62507,0.01928 -3.97511,0.05464 -7.44481,0.08016 -3.4697,0.02507 -6.33496,0.06042 -6.36719,0.0781 -0.0278,0.018 -0.0625,7.112409 -0.0625,15.766469 v 15.7346 h 0.41186 c 0.22572,2.4e-4 5.50716,0.0971 11.73537,0.21515 11.80601,0.22388 12.21036,0.23179 22.5303,0.43613 3.49123,0.069 7.10248,0.13036 8.02502,0.13595 l 1.67734,0.0103 -0.0556,-2.12147 z m -12.66882,-0.34801 c -10.16283,-0.18037 -11.83719,-0.20942 -16.41772,-0.28566 -2.28449,-0.0379 -4.99981,-0.0859 -6.03423,-0.10664 -1.03442,-0.0206 -3.15918,-0.0591 -4.72158,-0.0848 l -2.84082,-0.0469 V 109.6066 95.801129 l 0.17572,-0.03278 c 0.0965,-0.01928 3.20912,-0.05207 6.91579,-0.07437 3.70668,-0.0225 8.15017,-0.05656 9.87419,-0.07636 3.83114,-0.04371 9.39289,-0.09301 17.49534,-0.155877 l 6.13217,-0.04757 v 14.337778 14.33776 l -1.82202,-0.0154 c -1.00206,-0.009 -4.94293,-0.0704 -8.75746,-0.13794 z m 2.66448,-21.00315 v -3.386441 l -10.20729,0.04757 c -5.61391,0.02635 -11.50312,0.04757 -13.08719,0.04757 l -2.87992,2.7e-4 v 3.299771 3.29974 l 7.85618,0.0193 c 4.32098,0.0103 10.2102,0.0276 13.08727,0.0386 l 5.23095,0.0199 z m -9.71744,-15.765972 c 2.69385,-0.03857 5.65607,-0.08671 6.58277,-0.106832 0.92663,-0.01993 3.06021,-0.054 4.74117,-0.07431 1.68096,-0.02057 3.63813,-0.05335 4.34932,-0.07219 0.71112,-0.01928 2.88005,-0.05528 4.81951,-0.08048 1.9396,-0.02507 3.55124,-0.05914 3.58138,-0.07553 0.0625,-0.03278 0.0417,-0.230442 -0.18127,-1.983882 -0.28961,-2.273506 -0.74543,-3.95831 -1.37647,-5.092674 -0.58063,-1.043369 -1.12187,-1.446353 -2.11803,-1.57688 -2.24345,-0.293962 -11.01098,-0.276286 -15.5397,0.0313 -3.04014,0.206492 -5.189,0.585959 -6.32697,1.117341 -0.96157,0.448941 -1.96717,1.311726 -3.01403,2.585962 -0.97407,1.185506 -2.87839,4.137545 -3.49915,5.42422 -0.0208,0.03278 0.6716,0.0405 1.52747,0.01735 0.85579,-0.02314 3.76015,-0.07431 6.45393,-0.112939 z"
     id="path7517"
     inkscape:connector-curvature="0" /><g
     transform="matrix(0.56651736,0.50541688,-0.54609112,0.52432172,479.61314,-243.27572)"
     id="layer1-1"><path
       id="rect6342"
       d="m 311.65625,421.5 c -10.19459,-0.10347 -18.55254,8.08705 -18.65625,18.28125 -0.004,0.40359 0.041,0.7901 0.0625,1.1875 9.22024,2.76785 30.37757,2.98096 36.78125,0.53125 0.0372,-0.44806 0.0891,-0.88704 0.0937,-1.34375 0.10346,-10.19459 -8.08617,-18.55203 -18.28125,-18.65625 z m 17.90625,22.125 c -8.67146,3.57309 -25.76402,1.96599 -36.125,0.21875 0.8847,4.12783 3.14111,7.74632 6.28125,10.34375 0.0118,0.002 0.0194,0.0293 0.0313,0.0313 3.50592,0.5835 7.81229,0.93443 11.59375,0.96875 3.80741,0.0344 8.06326,-0.1838 11.59375,-0.78125 3.33967,-2.65152 5.7502,-6.43166 6.625,-10.78125 z m -29.84375,12.59375 c 1.50068,22.8351 3.44368,61.40763 5,84.15625 -0.0139,1.37231 2.98106,2.52514 6.65625,2.5625 3.67509,0.0374 6.64227,-1.03386 6.65625,-2.40625 1.91421,-22.80406 3.00167,-61.3408 4.875,-84.15625 -0.01,0.002 -0.0212,-0.002 -0.0313,0 l -0.0313,0.0625 c -1.30639,0.17486 -2.67264,0.32241 -4.0625,0.4375 -0.0203,0.002 -0.0421,-0.002 -0.0625,0 -2.4092,0.18931 -4.90171,0.2764 -7.5,0.25 -2.55915,-0.026 -5.03529,-0.17262 -7.40625,-0.40625 -0.009,-0.004 -0.0224,0.004 -0.0313,0 -1.39307,-0.1419 -2.74488,-0.29776 -4.0625,-0.5 z m 7.09375,87.15625 0.0625,2.96875 c 0.0226,1.34189 1.12669,2.41354 2.46875,2.40625 l 4.40625,-0.0313 c 1.34206,-0.007 2.39761,-1.06436 2.375,-2.40625 l -0.0625,-2.84375 c -2.87855,1.06697 -6.31172,0.95762 -9.25,-0.0937 z"
       style="fill:#000000;stroke:none"
       inkscape:connector-curvature="0" /></g><g
     id="g4"
     transform="matrix(5.8264193,0,0,5.3924529,238.00607,140.14882)"><path
       d="m 2.3,2.6 v 1.5 0.6 8.6 c 0,0.2 0.1,0.3 0.3,0.3 2.1,0 3.8,0.4 5.3,1.2 0.3,0.1 0.5,0.3 0.8,0.5 V 14.8 14.5 4.5 3.8 C 6.9,2.7 5,2.3 2.6,2.3 2.4,2.3 2.3,2.4 2.3,2.6 Z"
       id="path1" /><path
       d="M 15.7,13.3 V 4.7 4.1 2.6 C 15.7,2.4 15.6,2.3 15.4,2.3 13,2.3 11,2.8 9.3,3.9 v 0.7 10 0.3 0.5 c 0.3,-0.2 0.5,-0.3 0.8,-0.5 1.5,-0.8 3.2,-1.2 5.3,-1.2 0.2,-0.1 0.3,-0.3 0.3,-0.4 z"
       id="path2" /><path
       d="m 2.3,14.5 c -0.5,0 -1,-0.4 -1,-1 v -9 -0.6 h -1 C 0.1,3.9 0,4 0,4.2 v 11.3 c 0,0.2 0.1,0.3 0.3,0.3 H 7.7 C 7.3,15.5 6.8,15.3 6.3,15.2 5.1,14.7 3.8,14.5 2.3,14.5 Z"
       id="path3" /><path
       d="m 17.7,3.9 h -1 v 0.6 9 c 0,0.5 -0.4,1 -1,1 -1.5,0 -2.9,0.2 -4.1,0.6 -0.5,0.2 -0.9,0.4 -1.4,0.6 h 7.4 c 0.2,0 0.3,-0.1 0.3,-0.3 V 4.2 C 18,4 17.9,3.9 17.7,3.9 Z"
       id="path4" /></g></g></svg>
