<?xml version="1.0" encoding="UTF-8" standalone="no"?>
<!-- Generator: Adobe Illustrator 11.0, SVG Export Plug-In  -->

<!-- hand edited from http://commons.wikimedia.org/wiki/Image:1_9_2_44.svg -->

<svg
   xmlns:dc="http://purl.org/dc/elements/1.1/"
   xmlns:cc="http://creativecommons.org/ns#"
   xmlns:rdf="http://www.w3.org/1999/02/22-rdf-syntax-ns#"
   xmlns:svg="http://www.w3.org/2000/svg"
   xmlns="http://www.w3.org/2000/svg"
   xmlns:sodipodi="http://sodipodi.sourceforge.net/DTD/sodipodi-0.dtd"
   xmlns:inkscape="http://www.inkscape.org/namespaces/inkscape"
   width="50"
   height="50"
   viewBox="140 90 33.75 33.75"
   xml:space="preserve"
   id="svg2"
   version="1.0"
   sodipodi:docname="P_Education.svg"
   inkscape:version="0.92.3 (2405546, 2018-03-11)"><title
   id="title989">NACE Section P Classification Visual</title><defs
   id="defs5729" /><sodipodi:namedview
   pagecolor="#ffffff"
   bordercolor="#666666"
   borderopacity="1"
   objecttolerance="10"
   gridtolerance="10"
   guidetolerance="10"
   inkscape:pageopacity="0"
   inkscape:pageshadow="2"
   inkscape:window-width="1853"
   inkscape:window-height="1012"
   id="namedview5727"
   showgrid="false"
   inkscape:zoom="2.36"
   inkscape:cx="-228.6017"
   inkscape:cy="-20.338978"
   inkscape:window-x="0"
   inkscape:window-y="0"
   inkscape:window-maximized="0"
   inkscape:current-layer="g11986" /><metadata
   id="metadata19"><rdf:RDF><cc:Work
       rdf:about=""><cc:license
         rdf:resource="http://creativecommons.org/licenses/by-sa/2.5/" /><dc:format>image/svg+xml</dc:format><dc:type
         rdf:resource="http://purl.org/dc/dcmitype/StillImage" /><dc:title>NACE Section P Classification Visual</dc:title><dc:creator><cc:Agent><dc:title>Open Risk</dc:title></cc:Agent></dc:creator><dc:publisher><cc:Agent><dc:title>https://www.openriskmanagement.com</dc:title></cc:Agent></dc:publisher><dc:identifier>P_Education_Square</dc:identifier><dc:date>2018</dc:date><dc:rights><cc:Agent><dc:title>Creative Commons Attribution + Share-Alike  (CC-BY-SA)</dc:title></cc:Agent></dc:rights><dc:description>Person pointing at blackboard and sitting pupils as representative of the education sector</dc:description></cc:Work><cc:License
       rdf:about="http://creativecommons.org/licenses/by-sa/2.5/"><cc:permits
         rdf:resource="http://web.resource.org/cc/Reproduction" /><cc:permits
         rdf:resource="http://web.resource.org/cc/Distribution" /><cc:requires
         rdf:resource="http://web.resource.org/cc/Notice" /><cc:requires
         rdf:resource="http://web.resource.org/cc/Attribution" /><cc:permits
         rdf:resource="http://web.resource.org/cc/DerivativeWorks" /><cc:requires
         rdf:resource="http://web.resource.org/cc/ShareAlike" /></cc:License></rdf:RDF></metadata>
	
<g
   id="g11986"
   transform="matrix(0.14398343,0,0,0.15557073,109.34664,83.778741)"><g
     id="g14047"><path
       transform="matrix(12.430403,3.6446806,-3.9379922,11.504555,707.35234,-697.01393)"
       d="m 2.8782125,83.503339 c -0.1537059,0.169885 -10.6788155,3.561778 -10.9027935,3.513608 -0.223978,-0.04817 -8.423998,-7.467237 -8.49427,-7.685293 -0.07027,-0.218056 2.254817,-11.029014 2.408523,-11.1989 0.153706,-0.169885 10.6788153,-3.561778 10.9027933,-3.513607 0.223978,0.04817 8.4239982,7.467236 8.4942703,7.685292 0.070272,0.218056 -2.2548173,11.029014 -2.4085231,11.1989 z"
       inkscape:randomized="0"
       inkscape:rounded="0.02"
       inkscape:flatsided="true"
       sodipodi:arg2="1.2590385"
       sodipodi:arg1="0.73543977"
       sodipodi:r2="5.7274847"
       sodipodi:r1="11.45497"
       sodipodi:cy="75.818047"
       sodipodi:cx="-5.6160579"
       sodipodi:sides="6"
       id="path872-7"
       style="opacity:1;fill:#ffffff;fill-opacity:1;stroke:#000000;stroke-width:0.87425816;stroke-miterlimit:4;stroke-dasharray:none;stroke-opacity:1"
       sodipodi:type="star" /><g
       id="g855"
       transform="matrix(7.3706622,0,0,6.8216766,297.92755,-58.60325)"><g
         id="g4"
         transform="translate(0,2)"><circle
           cx="4.5"
           cy="34.5"
           r="2"
           id="circle6" /><path
           d="m 6.5,37.5 h -3 c -1.1,0 -2,0.9 -2,2 v 1 h 7 v -1 c 0,-1.1 -0.9,-2 -2,-2 z"
           id="path8-8"
           inkscape:connector-curvature="0" /><circle
           cx="12.5"
           cy="34.5"
           r="2"
           id="circle10" /><path
           d="m 16.5,39.5 c 0,-1.1 -0.9,-2 -2,-2 h -3 c -1.1,0 -2,0.9 -2,2 v 1 h 7 z"
           id="path12-37"
           inkscape:connector-curvature="0" /><circle
           cx="-3.5"
           cy="34.5"
           r="2"
           id="circle14" /><path
           d="m -1.5,37.5 h -3 c -1.1,0 -2,0.9 -2,2 v 1 h 7 v -1 c 0,-1.1 -0.9,-2 -2,-2 z"
           id="path16-07"
           inkscape:connector-curvature="0" /></g><g
         id="g18"
         transform="translate(0,2)"><circle
           cx="-3.5"
           cy="20.5"
           r="2"
           id="circle20" /><path
           d="m -4.5,23.5 c -1.1,0 -2,0.9 -2,2 v 6 h 6 v -6 h 3 v -2 z"
           id="path22-1"
           inkscape:connector-curvature="0" /><path
           d="m 14.5,18.5 c -0.1,0 -10.9,0 -11,0 -0.6,0 -1,0.4 -1,1 0,0.1 0,2 0,4 h 2 v 0 c 0.1,0 0.3,0 0.4,0.1 L 8.2,21.1 C 8.4,20.9 8.7,21 8.9,21.2 9.1,21.4 9,21.7 8.8,21.9 l -3.3,2.5 c 0,0 0,0.1 0,0.1 0,0.6 -0.4,1 -1,1 v 0 h -2 c 0,1.1 0,2 0,2 0,0.6 0.4,1 1,1 0.1,0 0.8,0 1,0 0,-0.6 0.4,-1 1,-1 h 2 c 0.6,0 1,0.4 1,1 0,0 5.9,0 6,0 0.6,0 1,-0.4 1,-1 0,-0.1 0,-7.9 0,-8 0,-0.6 -0.4,-1 -1,-1 z"
           id="path24-9"
           inkscape:connector-curvature="0" /></g></g></g></g></svg>