<?xml version="1.0" encoding="UTF-8" standalone="no"?>
<!-- Generator: Adobe Illustrator 11.0, SVG Export Plug-In  -->

<!-- hand edited from http://commons.wikimedia.org/wiki/Image:1_9_2_44.svg -->

<svg
   xmlns:dc="http://purl.org/dc/elements/1.1/"
   xmlns:cc="http://creativecommons.org/ns#"
   xmlns:rdf="http://www.w3.org/1999/02/22-rdf-syntax-ns#"
   xmlns:svg="http://www.w3.org/2000/svg"
   xmlns="http://www.w3.org/2000/svg"
   xmlns:sodipodi="http://sodipodi.sourceforge.net/DTD/sodipodi-0.dtd"
   xmlns:inkscape="http://www.inkscape.org/namespaces/inkscape"
   width="50"
   height="50"
   viewBox="140 90 33.75 33.75"
   xml:space="preserve"
   id="svg2"
   version="1.0"
   sodipodi:docname="B_Mining.svg"
   inkscape:version="0.92.3 (unknown)"><title
   id="title989">NACE Section B Classification Visual</title><defs
   id="defs5729" /><sodipodi:namedview
   pagecolor="#ffffff"
   bordercolor="#666666"
   borderopacity="1"
   objecttolerance="10"
   gridtolerance="10"
   guidetolerance="10"
   inkscape:pageopacity="0"
   inkscape:pageshadow="2"
   inkscape:window-width="1853"
   inkscape:window-height="1021"
   id="namedview5727"
   showgrid="false"
   inkscape:zoom="4.72"
   inkscape:cx="-83.096247"
   inkscape:cy="-20.338978"
   inkscape:window-x="0"
   inkscape:window-y="0"
   inkscape:window-maximized="0"
   inkscape:current-layer="g11986" /><metadata
   id="metadata19"><rdf:RDF><cc:Work
       rdf:about=""><cc:license
         rdf:resource="http://creativecommons.org/licenses/by-sa/2.5/" /><dc:format>image/svg+xml</dc:format><dc:type
         rdf:resource="http://purl.org/dc/dcmitype/StillImage" /><dc:title>NACE Section B Classification Visual</dc:title><dc:creator><cc:Agent><dc:title>Open Risk</dc:title></cc:Agent></dc:creator><dc:publisher><cc:Agent><dc:title>https://www.openriskmanagement.com</dc:title></cc:Agent></dc:publisher><dc:identifier>B_Mining_Circular</dc:identifier><dc:date>2018</dc:date><dc:rights><cc:Agent><dc:title>Creative Commons Attribution + Share-Alike  (CC-BY-SA)</dc:title></cc:Agent></dc:rights><dc:description>Mining truck and gear as representative of the mining industry</dc:description></cc:Work><cc:License
       rdf:about="http://creativecommons.org/licenses/by-sa/2.5/"><cc:permits
         rdf:resource="http://web.resource.org/cc/Reproduction" /><cc:permits
         rdf:resource="http://web.resource.org/cc/Distribution" /><cc:requires
         rdf:resource="http://web.resource.org/cc/Notice" /><cc:requires
         rdf:resource="http://web.resource.org/cc/Attribution" /><cc:permits
         rdf:resource="http://web.resource.org/cc/DerivativeWorks" /><cc:requires
         rdf:resource="http://web.resource.org/cc/ShareAlike" /></cc:License></rdf:RDF></metadata>
	
<g
   id="g11986"
   transform="matrix(0.14398343,0,0,0.15557073,109.34664,83.778741)"><path
     id="path1380"
     d="m 130.85847,224.55472 0.0842,0.16071 -0.0739,-0.0873 z"
     style="fill:#ffa800;stroke:#000000;stroke-width:0.44688126;stroke-linejoin:round"
     inkscape:connector-curvature="0" /><path
     id="path1378"
     d="m 60.656039,225.24563 0.333311,0.38912 v 0.23048 z"
     style="fill:#ffa800;stroke:#000000;stroke-width:0.44688126;stroke-linejoin:round"
     inkscape:connector-curvature="0" /><path
     id="path1376"
     d="m 178.90153,230.13991 0.30644,0.36018 v 0.21859 z"
     style="fill:#ffa800;stroke:#000000;stroke-width:0.44688126;stroke-linejoin:round"
     inkscape:connector-curvature="0" /><path
     id="path1374"
     d="m 61.726773,238.08257 0.355534,0.17829 0.02635,0.12299 z"
     style="fill:#ffa800;stroke:#000000;stroke-width:0.44688126;stroke-linejoin:round"
     inkscape:connector-curvature="0" /><path
     id="polygon2"
     d="m 179.81724,241.31958 0.36845,0.19276 0.0217,0.0837 z"
     style="fill:#ffa800;stroke:#000000;stroke-width:0.44688126;stroke-linejoin:round"
     inkscape:connector-curvature="0" /><g
     id="g831"><ellipse
       ry="104.13195"
       rx="112.51214"
       cy="149.38072"
       cx="332.08249"
       id="path864"
       style="opacity:1;fill:#ffffff;fill-opacity:1;stroke:#000000;stroke-width:9.02169418;stroke-miterlimit:4;stroke-dasharray:none;stroke-dashoffset:0;stroke-opacity:1" /><path
       style="fill:#000000;stroke:#000000;stroke-width:0.312828;stroke-linejoin:round"
       d="m 362.85938,135.15052 v 2.44135 l -1.95122,2.76539 -2.65659,3.44057 -0.0535,0.0643 v 0.005 l -0.97562,1.26345 h -46.57639 -47.76881 -1.11977 l -20.30717,6.1743 -3.68565,1.30204 v 2.53662 l -1.26504,4.83995 -1.18678,4.73948 h -0.114 l 0.0964,0.0706 -0.0241,0.0959 h 0.1547 l 3.45868,2.53661 h 10.48481 l 0.75316,0.46727 3.90245,3.17113 1.33883,0.23607 22.48911,11.72977 -1.06368,4.12166 -0.86232,0.80799 -0.005,-0.007 -0.75919,0.033 -0.50587,0.50099 -0.0441,0.0734 -1.00346,0.79444 -0.75806,1.26031 -0.36247,0.27501 -1.95122,1.80234 -1.69791,1.96886 -0.34139,0.47631 0.0158,-0.17557 0.32559,-0.66753 h -0.43361 l -0.32558,-0.0337 -0.25256,-0.16654 -0.65041,0.36681 -0.2168,0.70124 -0.0158,0.15506 -0.0564,-0.12202 -0.4336,1.1348 -0.10878,2.03632 0.0659,0.3202 -0.2104,0.44711 -1.0475,2.1361 -0.57815,2.50359 -0.11216,0.66405 -0.28568,-0.29725 -0.10805,-0.40052 0.0723,-0.70056 -0.39785,0.0998 -0.32483,0.10047 h -0.36134 l -0.4336,0.53403 0.10805,0.70056 0.0746,0.22876 -0.1468,-0.16201 0.0723,1.20156 0.79495,1.90281 0.61465,0.8883 v 0.47979 2.30333 l 0.33047,1.93237 -0.22245,-0.19679 -0.39709,-0.20026 -0.25331,-0.33377 -0.2168,-0.60077 -0.32483,0.23328 -0.28907,0.16724 -0.32558,0.1335 -0.14454,0.66754 0.36134,0.60078 0.10611,0.11229 -0.10611,-0.0125 0.54238,1.03502 1.51762,1.50159 0.60976,0.37027 0.87135,1.83259 0.60261,1.26135 -0.27703,-0.46032 -0.21681,0.30074 -0.21679,0.30005 -0.32559,0.16722 -0.0723,0.70056 0.50587,0.501 0.10915,0.0671 0.68579,1.00095 1.80668,1.1348 0.75429,0.30352 0.98014,1.0983 1.33582,1.23389 -0.1073,-0.0661 -0.10805,0.33376 -0.10878,0.30074 -0.14454,0.30004 0.25332,0.66754 0.6504,0.23398 0.18971,0.0417 -0.0817,0.025 1.084,0.60078 1.94107,0.29378 1.27522,0.90777 2.49285,0.93455 0.62896,0.26736 0.0214,0.2997 0.10878,0.10047 v 0.033 l 0.72267,0.26702 0.57814,0.1335 0.54163,0.26701 0.57324,-0.0528 0.25822,0.0865 0.46936,0.16653 0.57287,-0.11334 0.51114,0.11334 2.74616,0.40052 2.85494,0.20026 0.67977,-0.0546 0.62105,0.0546 h 0.18029 0.4336 l 0.57815,-0.0668 h 0.39785 l 0.46936,-0.0998 0.1976,-0.19122 0.0339,-0.005 0.20212,0.0626 0.28908,-0.0668 0.47011,-0.13351 0.0109,-0.006 0.63948,-0.0945 2.70966,-0.60077 1.56203,-0.67449 0.35343,0.20721 0.28907,0.16724 0.14453,0.30004 0.75843,-0.0668 0.54238,-0.50031 0.0723,-0.10917 v 0.10917 l 0.97523,-0.80104 0.51905,-0.83093 1.75776,-1.27214 2.05924,-1.5016 0.39785,-0.36748 -0.0723,0.23398 -0.4336,0.5003 0.36134,0.10047 0.32482,0.0998 0.28907,0.23398 0.68692,-0.20025 0.32483,-0.63451 0.0497,-0.15228 0.0226,0.0525 0.68693,-0.90151 0.54162,-2.06935 0.008,-0.14394 0.39032,-0.45684 1.62564,-2.20286 0.48103,-1.04127 -0.0109,0.04 0.3971,-0.0668 h 0.32557 l 0.3971,0.10049 0.54239,-0.50101 0.0358,-0.70056 -0.0267,-0.17383 0.099,0.0734 0.14453,-1.1348 -0.24202,-1.38652 0.5676,-2.18443 0.3971,-2.53662 0.1227,-1.11672 0.0941,0.34872 0.10877,0.70125 0.32483,-0.20025 0.32558,-0.13352 h 0.36134 l 0.3971,-0.60077 -0.2168,-0.66753 -0.0964,-0.15368 0.0964,0.0532 -0.1803,-1.1348 -0.89054,-1.53532 h 8.15305 l 4.1915,-2.49386 v 1.55931 h 5.27554 7.15447 1.8067 l -0.0437,-1.68864 0.15206,0.18705 h 9.33192 l -0.33461,0.73428 -0.61428,2.20285 -0.0761,0.5302 -0.24918,-0.23015 -0.0361,-0.33377 v -0.60078 l -0.3252,0.10047 -0.28907,0.0998 -0.32521,-0.0668 -0.36134,0.50099 0.0361,0.63381 0.0452,0.12551 -0.0452,-0.0251 0.0723,1.0013 0.68654,1.70186 0.54201,0.75097 v 0.45058 2.0026 l 0.24692,1.67369 -0.17465,-0.13837 -0.3252,-0.20026 -0.21681,-0.30005 -0.2168,-0.60077 -0.28907,0.26701 -0.21681,0.20026 -0.32519,0.033 -0.14454,0.60078 0.36133,0.56775 0.0617,0.0616 -0.0617,-0.0286 0.43361,0.96827 1.37309,1.30135 0.61502,0.39773 0.68579,1.50507 0.54464,1.16123 -0.25557,-0.39391 -0.18067,0.23398 -0.2168,0.26701 -0.32521,0.13351 v 0.60078 l 0.43361,0.46727 0.0881,0.0542 0.6346,0.84659 1.55376,1.00129 0.72906,0.30631 0.78855,0.92898 1.18413,1.09343 -0.13625,-0.0921 -0.0723,0.30005 -0.0361,0.267 -0.18067,0.23399 0.2168,0.56705 0.61427,0.23399 0.16261,0.0417 -0.12647,0.0581 1.04788,0.46727 1.58461,0.28718 1.16155,0.81459 2.13189,0.83407 0.57815,0.22495 v 0.24232 l 0.1084,0.10048 v 0.033 l 0.68654,0.20026 0.46974,0.16723 0.50587,0.20026 h 0.60599 l 0.0805,0.033 0.4336,0.16722 0.50813,-0.11125 0.46749,0.11125 2.38481,0.30005 2.49324,0.20026 0.60863,-0.0563 0.54764,0.0563 h 0.10841 0.36134 l 0.542,-0.0668 h 0.32521 l 0.4336,-0.0998 0.1306,-0.12759 0.26687,0.0271 0.25294,-0.033 0.26272,-0.11056 0.71289,-0.0897 2.34869,-0.56774 1.40921,-0.57853 0.28908,0.17801 0.2168,0.16723 0.2168,0.23329 h 0.65041 l 0.43361,-0.50031 0.0696,-0.10742 0.0388,0.10742 0.79495,-0.70124 0.45694,-0.70335 1.56655,-1.09899 1.84282,-1.33507 0.24465,-0.23085 -0.0279,0.0643 -0.39748,0.5003 0.39748,0.0668 0.21679,0.10048 0.25294,0.20026 0.61428,-0.16723 0.3252,-0.53403 0.0305,-0.1262 0.005,0.0265 0.61427,-0.8678 0.50588,-1.73557 v -0.25415 l 0.25293,-0.31361 1.48148,-1.90211 0.37865,-0.83894 0.38016,-0.0956 h 0.32521 l 0.32521,0.0998 0.4336,-0.40052 0.0361,-0.66753 -0.0218,-0.11995 0.0941,0.0869 0.14453,-1.03503 -0.22997,-1.27561 0.51904,-1.86178 0.32521,-2.20285 0.10839,-1.0013 0.1084,0.30074 0.0361,0.60077 0.28907,-0.16723 0.32521,-0.0998 h 0.25294 l 0.39747,-0.50101 -0.21681,-0.60077 -0.0655,-0.13629 0.0655,0.0365 -0.18066,-1.0013 -0.86722,-1.60207 -0.26498,-0.28579 -0.0211,-0.14671 0.14153,0.0319 h 5.9982 l -0.0207,-0.10047 h 0.39257 l 3.6514,0.16444 0.26498,0.3063 0.0117,0.097 0.2168,0.23329 0.50586,0.10048 h 7.8049 0.3252 l 0.46974,-0.1335 0.18067,-0.20027 0.067,-0.13906 0.3666,-0.46171 0.1084,-0.66753 -0.0723,-0.80104 h 0.0723 l 0.46973,-0.16722 0.21681,-0.13352 0.18067,-0.30004 -0.24466,0.082 0.24466,-0.18253 -0.94325,-0.36957 0.0761,0.003 0.4336,0.16653 0.32521,0.13351 -0.18068,-0.30004 -0.14453,-0.1335 -0.50587,-0.16724 h -0.23788 l 0.0832,-1.10108 h 0.15469 l 0.50587,-0.1335 0.14454,-0.16724 0.18067,-0.30004 -0.32521,0.16654 -0.1705,0.0525 0.42343,-0.21904 -1.084,-0.33376 2.8e-4,-0.0119 0.32483,0.0119 0.39747,0.0998 0.36134,0.20026 -0.21681,-0.30004 -0.14453,-0.16723 -0.43361,-0.1335 h -0.27514 l 0.0489,-1.06806 h 0.11781 l 0.46973,-0.0998 0.18067,-0.20027 0.14454,-0.30074 -0.32521,0.20027 -0.36133,0.10047 h -0.0188 l 0.59697,-0.30074 -0.86721,-0.33376 0.0155,-0.10986 0.27364,0.0101 0.36134,0.13351 0.3252,0.16653 -0.14454,-0.30004 -0.18066,-0.16723 -0.46974,-0.1335 h -0.12496 l 0.10654,-0.76732 h 0.12684 l 0.43361,-0.13351 0.14453,-0.20026 0.2168,-0.267 -0.19121,0.0528 0.26348,-0.15331 -1.08402,-0.40052 8.7e-4,-0.008 0.21604,0.008 0.36134,0.20026 0.3252,0.10047 -0.14453,-0.30073 -0.18067,-0.0998 -0.46974,-0.20026 h -0.0768 l 0.0629,-0.60077 h 0.0139 l 0.46974,-0.1335 0.18066,-0.16724 0.14454,-0.30004 -0.3252,0.16654 -0.20664,0.0761 0.20664,-0.17592 0.3252,-0.0668 -0.48781,-0.33794 0.018,0.004 0.3252,0.20026 -0.18067,-0.30074 -0.14453,-0.16653 -0.2232,-0.0588 -0.2104,-0.47528 -0.72268,-0.80103 -0.86722,-0.30073 h -2.50715 l -0.42983,-4.93974 h 0.33536 v -17.2223 h -0.68657 v -0.30005 -2.60337 l -0.542,-1.96956 -4.73352,-2.97017 -2.16802,-2.00259 -1.40922,-1.6358 -0.052,-0.24997 0.16035,-0.15055 -2.13716,-10.83451 0.18594,0.18704 -0.75241,-3.90471 h 11.3761 v -1.33715 l 0.10806,0.002 -0.14455,-1.66883 -10.44265,-2.10305 -1.01174,-0.96757 h -2.27643 l 0.14454,-0.0337 h -4.55336 l 1.15628,-1.56836 5.5646,-0.93453 h 0.0723 1.19242 l 2.49322,-2.30333 h -1.19241 -4.98645 -30.35198 v -1.46857 z"
       id="path1382"
       inkscape:connector-curvature="0" /><path
       inkscape:connector-curvature="0"
       d="m 284.18375,182.87126 c -5.57236,-1.76469 -6.18997,-2.2656 -7.38009,-5.9855 -1.11622,-3.48895 -1.11569,-3.97577 0.004,-4.18959 0.64156,-0.12245 7.26781,-6.31381 20.2202,-18.89312 10.59626,-10.29104 20.6222,-19.99134 22.27986,-21.55623 2.25894,-2.13248 2.93201,-2.9784 2.68686,-3.37687 -0.69323,-1.12682 -29.59668,-29.175161 -30.33389,-29.436471 -0.28629,-0.10147 -1.04084,0.32586 -1.6768,0.949621 -1.46456,1.4365 -8.64348,10.28186 -12.98403,15.99798 -1.82582,2.40446 -3.52734,4.35411 -3.78116,4.33256 -0.2538,-0.0216 -4.06969,-2.69703 -8.47974,-5.94554 l -8.01826,-5.90638 1.07535,-0.87435 c 0.59145,-0.48088 2.76081,-3.15638 4.8208,-5.94554 5.99666,-8.119263 12.58697,-16.040562 15.87167,-19.077157 4.44327,-4.107652 29.38756,-21.142707 30.9591,-21.142707 0.40429,0 2.65782,2.40762 5.8701,6.271465 3.56308,4.285799 5.55439,6.387467 6.28929,6.637824 0.59146,0.201502 1.01741,0.515586 0.94657,0.697975 -0.0709,0.182398 -3.96243,2.99806 -8.64796,6.257037 -4.68555,3.258967 -9.74539,6.975832 -11.24411,8.259697 -3.93361,3.369683 -4.11569,2.965992 5.26235,11.667406 9.41464,8.73537 32.88246,29.74907 56.15013,50.27827 9.57932,8.4519 18.62253,16.4315 20.09602,17.73244 1.7212,1.51964 2.99085,2.36534 3.55109,2.36534 0.8326,0 0.86016,0.0827 0.60941,1.82876 -0.41902,2.91769 -1.72619,5.54696 -3.2188,6.47435 -1.40374,0.87217 -4.10614,1.67045 -6.8546,2.02484 l -1.71931,0.22168 -22.48128,-22.24686 c -12.36448,-12.23577 -22.59807,-22.20313 -22.74109,-22.14967 -0.14303,0.0535 -9.50549,9.77618 -20.80546,21.60608 -11.29997,11.82988 -21.16462,22.08781 -21.92145,22.7954 l -1.37605,1.28652 z m 51.13844,-57.84991 -4.52007,-3.94978 13.63872,-13.2161 c 11.51201,-11.155307 13.63871,-13.374369 13.63871,-14.230988 0,-0.875612 -1.28982,-2.124364 -9.40035,-9.100985 -5.1702,-4.447366 -9.30612,-8.226949 -9.19096,-8.399067 0.11516,-0.172119 0.55643,-0.312947 0.9806,-0.312947 0.48078,0 3.31465,-2.239094 7.52486,-5.945548 3.71451,-3.270046 6.9359,-5.945543 7.15863,-5.945543 0.22273,0 4.25307,3.462407 8.9563,7.694232 8.92015,8.026117 9.54468,8.425197 10.94614,6.994765 0.37692,-0.384708 0.95708,-0.697406 1.28923,-0.69488 0.33215,0.002 1.79462,0.939648 3.24992,2.082485 1.6887,1.326123 3.05154,2.115292 3.76689,2.181265 l 1.12091,0.10338 -1.26242,1.324178 c -0.69433,0.728305 -1.32057,1.785547 -1.39165,2.34942 -0.11398,0.904307 0.23361,1.315334 2.947,3.484712 1.69192,1.352722 3.26399,2.461006 3.4935,2.462872 0.37811,0.003 17.2697,30.092069 17.04659,30.365089 -0.0522,0.0639 -6.54128,-3.0604 -14.42018,-6.94284 l -14.32527,-7.05899 -4.35992,-3.98647 c -2.39797,-2.19256 -4.46747,-3.98647 -4.5989,-3.98647 -0.13144,0 -6.40814,6.45267 -13.94826,14.33925 -7.5401,7.8866 -13.73418,14.33915 -13.76461,14.339 -0.0305,-1.4e-4 -2.08938,-1.77765 -4.57541,-3.95004 z"
       style="fill:#000000;fill-opacity:1;stroke-width:0.363897"
       id="path1935" /></g></g></svg>