<?xml version="1.0" encoding="UTF-8" standalone="no"?>
<!-- Generator: Adobe Illustrator 11.0, SVG Export Plug-In  -->

<!-- hand edited from http://commons.wikimedia.org/wiki/Image:1_9_2_44.svg -->

<svg
   xmlns:dc="http://purl.org/dc/elements/1.1/"
   xmlns:cc="http://creativecommons.org/ns#"
   xmlns:rdf="http://www.w3.org/1999/02/22-rdf-syntax-ns#"
   xmlns:svg="http://www.w3.org/2000/svg"
   xmlns="http://www.w3.org/2000/svg"
   xmlns:sodipodi="http://sodipodi.sourceforge.net/DTD/sodipodi-0.dtd"
   xmlns:inkscape="http://www.inkscape.org/namespaces/inkscape"
   width="50"
   height="50"
   viewBox="140 90 33.75 33.75"
   xml:space="preserve"
   id="svg2"
   version="1.0"
   sodipodi:docname="D_Electricity.svg"
   inkscape:version="0.92.3 (unknown)"><title
   id="title989">NACE Section D Classification Visual</title><defs
   id="defs5729"><filter
     style="color-interpolation-filters:sRGB"
     inkscape:label="Cross-smooth"
     id="filter4556"><feGaussianBlur
       in="SourceGraphic"
       stdDeviation="10"
       result="blur1"
       id="feGaussianBlur4540" /><feComposite
       in="blur1"
       in2="blur1"
       operator="in"
       result="composite1"
       id="feComposite4542" /><feComposite
       k4="0"
       k3="0"
       k1="0"
       in="composite1"
       in2="composite1"
       k2="1"
       operator="arithmetic"
       result="composite2"
       id="feComposite4544" /><feColorMatrix
       in="composite2"
       values="1 0 0 0 0 0 1 0 0 0 0 0 1 0 0 0 0 0 10 0 "
       result="colormatrix1"
       id="feColorMatrix4546" /><feGaussianBlur
       stdDeviation="1"
       result="blur2"
       id="feGaussianBlur4548" /><feColorMatrix
       in="blur2"
       values="1 0 0 0 0 0 1 0 0 0 0 0 1 0 0 0 0 0 5 -1 "
       result="colormatrix2"
       id="feColorMatrix4550" /><feBlend
       in="SourceGraphic"
       in2="colormatrix2"
       stdDeviation="17"
       mode="normal"
       result="blend"
       id="feBlend4552" /><feComposite
       in="blend"
       in2="colormatrix2"
       operator="in"
       result="composite3"
       id="feComposite4554" /></filter><clipPath
     clipPathUnits="userSpaceOnUse"
     id="clipPath1164"><rect
       style="opacity:1;fill:none;fill-opacity:1;stroke:#000000;stroke-width:1;stroke-miterlimit:4;stroke-dasharray:none;stroke-dashoffset:0;stroke-opacity:1"
       id="rect1166"
       width="474.90692"
       height="613.7948"
       x="-88.485016"
       y="-13.440762"
       rx="11.4434"
       ry="12.684" /></clipPath></defs><sodipodi:namedview
   pagecolor="#ffffff"
   bordercolor="#666666"
   borderopacity="1"
   objecttolerance="10"
   gridtolerance="10"
   guidetolerance="10"
   inkscape:pageopacity="0"
   inkscape:pageshadow="2"
   inkscape:window-width="1853"
   inkscape:window-height="1021"
   id="namedview5727"
   showgrid="false"
   inkscape:zoom="9.44"
   inkscape:cx="41.392721"
   inkscape:cy="25.566127"
   inkscape:window-x="0"
   inkscape:window-y="0"
   inkscape:window-maximized="0"
   inkscape:current-layer="g11986" /><metadata
   id="metadata19"><rdf:RDF><cc:Work
       rdf:about=""><cc:license
         rdf:resource="http://creativecommons.org/licenses/by-sa/2.5/" /><dc:format>image/svg+xml</dc:format><dc:type
         rdf:resource="http://purl.org/dc/dcmitype/StillImage" /><dc:title>NACE Section D Classification Visual</dc:title><dc:creator><cc:Agent><dc:title>Open Risk</dc:title></cc:Agent></dc:creator><dc:publisher><cc:Agent><dc:title>https://www.openriskmanagement.com</dc:title></cc:Agent></dc:publisher><dc:identifier>D_Electricity_Circular</dc:identifier><dc:date>2018</dc:date><dc:rights><cc:Agent><dc:title>Creative Commons Attribution + Share-Alike  (CC-BY-SA)</dc:title></cc:Agent></dc:rights><dc:description>Wind turbine and electicity transmission line as representative of electricity, gas and steam generation and distribution industries</dc:description></cc:Work><cc:License
       rdf:about="http://creativecommons.org/licenses/by-sa/2.5/"><cc:permits
         rdf:resource="http://web.resource.org/cc/Reproduction" /><cc:permits
         rdf:resource="http://web.resource.org/cc/Distribution" /><cc:requires
         rdf:resource="http://web.resource.org/cc/Notice" /><cc:requires
         rdf:resource="http://web.resource.org/cc/Attribution" /><cc:permits
         rdf:resource="http://web.resource.org/cc/DerivativeWorks" /><cc:requires
         rdf:resource="http://web.resource.org/cc/ShareAlike" /></cc:License></rdf:RDF></metadata>
	
<g
   id="g11986"
   transform="matrix(0.14398343,0,0,0.15557073,109.34664,83.778741)"><g
     id="g1322"
     transform="translate(-1.489843)"><ellipse
       ry="104.13195"
       rx="112.51214"
       cy="149.38072"
       cx="332.08249"
       id="path864"
       style="opacity:1;fill:#ffffff;fill-opacity:1;stroke:#000000;stroke-width:9.02169418;stroke-miterlimit:4;stroke-dasharray:none;stroke-dashoffset:0;stroke-opacity:1" /><path
       inkscape:connector-curvature="0"
       d="m 265.54662,76.341443 c -0.014,-0.0062 -0.0249,0.0038 -0.0249,0.01149 0,0.277666 4.3346,5.608212 7.63006,9.384994 7.07347,8.106601 21.82625,24.442503 23.82217,26.372293 1.53481,1.48395 1.85986,2.00896 1.69004,2.7948 -0.15342,0.70999 0.0637,1.24488 0.8326,2.01271 0.99063,0.98929 1.03594,1.19073 0.79532,3.64589 -0.14005,1.42888 -0.68428,4.35324 -1.2054,6.49819 -0.52113,2.14494 -1.29455,6.86504 -1.72733,10.48911 -2.60485,21.81303 -3.59218,31.75599 -3.8026,38.42557 l -0.17397,5.7046 0.77046,-5.88862 c 2.12917,-16.32722 6.36204,-43.23684 8.41294,-53.48067 l 0.8326,-4.16342 1.44151,0.11501 1.4415,0.11501 -0.0373,27.05087 c -0.0732,46.89599 0.005,77.31709 -0.0994,84.902 h 7.07084 c -0.23088,-1.42513 -0.36387,-4.30726 -0.50949,-10.19008 -0.42858,-17.31288 -1.02804,-38.10687 -1.45394,-50.60536 -0.69406,-20.36823 -0.78182,-23.58498 -1.03142,-37.64349 l -0.23611,-13.72096 3.38009,0.046 c 1.86014,0.0293 3.55638,-0.0459 3.77774,-0.17252 0.56854,-0.3252 1.35946,-3.96335 0.94444,-4.34746 -0.18823,-0.17422 -1.26401,-0.45511 -2.39837,-0.62107 -1.13436,-0.16596 -2.15621,-0.37394 -2.26168,-0.47155 -0.33909,-0.31383 9.86042,-8.33258 18.52836,-14.560538 1.80049,-1.293669 7.62146,-5.235967 11.45751,-7.763325 7.28974,-4.8028 -2.2376,-0.03632 -15.26011,7.636811 -2.40583,1.41756 -4.90047,2.851282 -5.54236,3.185832 -2.28694,1.19196 -12.7951,7.65099 -15.57077,9.56902 -2.8749,1.9866 -4.37954,2.59422 -5.19441,2.09322 -0.2502,-0.15383 -1.17632,-1.68378 -2.06284,-3.40436 -1.85437,-3.599 -1.89042,-3.63848 -9.81717,-10.477611 -6.32858,-5.460219 -13.68876,-12.253508 -20.36755,-18.78149 -2.10168,-2.054227 -3.84141,-3.668428 -4.05113,-3.760899 z"
       id="path3196"
       style="fill:#000000;stroke-width:0.21634297" /><path
       id="path3653"
       d="m 332.11602,228.73121 h 48.78246"
       style="fill:none;fill-rule:evenodd;stroke:#000000;stroke-width:2.95149446;stroke-linecap:butt;stroke-linejoin:miter;stroke-miterlimit:4;stroke-dasharray:none;stroke-opacity:1"
       inkscape:connector-curvature="0" /><path
       id="path3655"
       d="M 341.26273,228.37848 358.0317,117.26956"
       style="fill:none;fill-rule:evenodd;stroke:#000000;stroke-width:2.95149446;stroke-linecap:butt;stroke-linejoin:miter;stroke-miterlimit:4;stroke-dasharray:none;stroke-opacity:1"
       inkscape:connector-curvature="0" /><path
       id="path3657"
       d="m 341.06005,228.77557 17.18227,-9.1813 -14.52373,-7.76073 14.52971,-7.76392 -12.40309,-6.62757 12.24349,-6.54228 -10.36087,-5.53631 10.67353,-5.70338 -9.26628,-4.95142 9.20995,-4.92131 -7.6823,-4.10502 7.69399,-4.11127 -6.67881,-3.5688 6.57929,-3.51563 -5.50851,-2.94346 5.63215,-3.00952 -4.64089,-2.47985 4.56507,-2.43934 -3.80947,-2.03558 3.74359,-2.00038 -3.04847,-1.62894 2.96905,-1.5865 -2.65806,-1.42033 2.65423,-1.41828 -2.23796,-1.19584 2.25732,-1.20619 -1.93161,-1.03215 1.97099,-1.82419 -1.48881,-1.37791 1.5193,-1.40613 -1.17969,-1.09182 1.16181,-1.07528 -0.7506,-1.20324 0.77983,-0.72174 -0.63694,-0.58951 0.64346,-0.59553 -0.50047,-0.4632"
       style="fill:none;fill-rule:evenodd;stroke:#000000;stroke-width:2.95149446;stroke-linecap:butt;stroke-linejoin:miter;stroke-miterlimit:4;stroke-dasharray:none;stroke-opacity:1"
       inkscape:connector-curvature="0" /><path
       id="path3659"
       d="m 341.06005,228.77557 17.18227,-9.1813 -14.52373,-7.76073 14.52971,-7.76392 -12.40309,-6.62757 12.24349,-6.54228 -10.36087,-5.53631 10.67353,-5.70338 -9.26628,-4.95142 9.20995,-4.92131 -7.6823,-4.10502 7.69399,-4.11127 -6.67881,-3.5688 6.57929,-3.51563 -5.50851,-2.94346 5.63215,-3.00952 -4.64089,-2.47985 4.56507,-2.43934 -3.80947,-2.03558 3.74359,-2.00038 -3.04847,-1.62894 2.96905,-1.5865 -2.65806,-1.42033 2.65423,-1.41828 -2.23796,-1.19584 2.25732,-1.20619 -1.93161,-1.03215 1.97099,-1.82419 -1.48881,-1.37791 1.5193,-1.40613 -1.17969,-1.09182 1.16181,-1.07528 -0.7506,-1.20324 0.77983,-0.72174 -0.63694,-0.58951 0.64346,-0.59553 -0.50047,-0.4632"
       style="fill:none;fill-rule:evenodd;stroke:#000000;stroke-width:2.95149446;stroke-linecap:butt;stroke-linejoin:miter;stroke-miterlimit:4;stroke-dasharray:none;stroke-opacity:1"
       inkscape:connector-curvature="0" /><path
       id="path3661"
       d="m 341.06005,228.77557 17.18227,-9.1813 -14.52373,-7.76073 14.52971,-7.76392 -12.40309,-6.62757 12.24349,-6.54228 -10.36087,-5.53631 10.67353,-5.70338 -9.26628,-4.95142 9.20995,-4.92131 -7.6823,-4.10502 7.69399,-4.11127 -6.67881,-3.5688 6.57929,-3.51563 -5.50851,-2.94346 5.63215,-3.00952 -4.64089,-2.47985 4.56507,-2.43934 -3.80947,-2.03558 3.74359,-2.00038 -3.04847,-1.62894 2.96905,-1.5865 -2.65806,-1.42033 2.65423,-1.41828 -2.23796,-1.19584 2.25732,-1.20619 -1.93161,-1.03215 1.97099,-1.82419 -1.48881,-1.37791 1.5193,-1.40613 -1.17969,-1.09182 1.16181,-1.07528 -0.7506,-1.20324 0.77983,-0.72174 -0.63694,-0.58951 0.64346,-0.59553 -0.50047,-0.4632"
       style="fill:none;fill-rule:evenodd;stroke:#000000;stroke-width:2.95149446;stroke-linecap:butt;stroke-linejoin:miter;stroke-miterlimit:4;stroke-dasharray:none;stroke-opacity:1"
       inkscape:connector-curvature="0" /><path
       id="path3663"
       d="m 358.35236,161.47898 h -36.46299 l 30.60471,-7.58971 h 5.85828"
       style="fill:none;fill-rule:evenodd;stroke:#000000;stroke-width:2.95149446;stroke-linecap:butt;stroke-linejoin:miter;stroke-miterlimit:4;stroke-dasharray:none;stroke-opacity:1"
       inkscape:connector-curvature="0" /><path
       id="path3665"
       d="m 351.17112,161.3046 -5.81386,-5.38083 -5.81387,5.38083 -3.43776,-3.18171 -3.48832,3.2285 -2.02221,-1.87159"
       style="fill:none;fill-rule:evenodd;stroke:#000000;stroke-width:2.95149446;stroke-linecap:butt;stroke-linejoin:miter;stroke-miterlimit:4;stroke-dasharray:none;stroke-opacity:1"
       inkscape:connector-curvature="0" /><rect
       id="rect3669"
       style="opacity:1;fill:#333333;fill-opacity:1;stroke:#000000;stroke-width:2.95149446;stroke-linecap:butt;stroke-linejoin:miter;stroke-miterlimit:4;stroke-dasharray:none;stroke-dashoffset:0;stroke-opacity:1"
       y="139.71265"
       x="332.85349"
       height="5.4389753"
       width="0.80748355" /><path
       inkscape:connector-curvature="0"
       id="path3671"
       style="opacity:1;fill:#333333;fill-opacity:1;stroke:#000000;stroke-width:2.95149446;stroke-linecap:butt;stroke-linejoin:miter;stroke-miterlimit:4;stroke-dasharray:none;stroke-dashoffset:0;stroke-opacity:1"
       d="m 334.40117,141.55762 a 1.1439352,0.33215121 0 1 1 -2.28787,0 1.1439352,0.33215121 0 1 1 2.28787,0 z" /><path
       inkscape:connector-curvature="0"
       id="path3673"
       style="opacity:1;fill:#333333;fill-opacity:1;stroke:#000000;stroke-width:2.95149446;stroke-linecap:butt;stroke-linejoin:miter;stroke-miterlimit:4;stroke-dasharray:none;stroke-dashoffset:0;stroke-opacity:1"
       d="m 334.40117,140.71425 a 1.1439352,0.33215121 0 1 1 -2.28787,0 1.1439352,0.33215121 0 1 1 2.28787,0 z" /><path
       inkscape:connector-curvature="0"
       id="path3675"
       style="opacity:1;fill:#333333;fill-opacity:1;stroke:#000000;stroke-width:2.95149446;stroke-linecap:butt;stroke-linejoin:miter;stroke-miterlimit:4;stroke-dasharray:none;stroke-dashoffset:0;stroke-opacity:1"
       d="m 334.40117,144.0877 a 1.1439352,0.33215121 0 1 1 -2.28787,0 1.1439352,0.33215121 0 1 1 2.28787,0 z" /><path
       inkscape:connector-curvature="0"
       id="path3677"
       style="opacity:1;fill:#333333;fill-opacity:1;stroke:#000000;stroke-width:2.95149446;stroke-linecap:butt;stroke-linejoin:miter;stroke-miterlimit:4;stroke-dasharray:none;stroke-dashoffset:0;stroke-opacity:1"
       d="m 334.40117,143.24434 a 1.1439352,0.33215121 0 1 1 -2.28787,0 1.1439352,0.33215121 0 1 1 2.28787,0 z" /><path
       inkscape:connector-curvature="0"
       id="path3679"
       style="opacity:1;fill:#333333;fill-opacity:1;stroke:#000000;stroke-width:2.95149446;stroke-linecap:butt;stroke-linejoin:miter;stroke-miterlimit:4;stroke-dasharray:none;stroke-dashoffset:0;stroke-opacity:1"
       d="m 334.40117,142.40097 a 1.1439352,0.33215121 0 1 1 -2.28787,0 1.1439352,0.33215121 0 1 1 2.28787,0 z" /><path
       inkscape:connector-curvature="0"
       id="path3681"
       style="opacity:1;fill:#333333;fill-opacity:1;stroke:#000000;stroke-width:2.95149446;stroke-linecap:butt;stroke-linejoin:miter;stroke-miterlimit:4;stroke-dasharray:none;stroke-dashoffset:0;stroke-opacity:1"
       d="m 334.40117,144.93105 a 1.1439352,0.33215121 0 1 1 -2.28787,0 1.1439352,0.33215121 0 1 1 2.28787,0 z" /><rect
       id="rect3685"
       style="opacity:1;fill:#333333;fill-opacity:1;stroke:#000000;stroke-width:2.95149446;stroke-linecap:butt;stroke-linejoin:miter;stroke-miterlimit:4;stroke-dasharray:none;stroke-dashoffset:0;stroke-opacity:1"
       y="161.54903"
       x="323.55902"
       height="5.4389753"
       width="0.80748355" /><path
       inkscape:connector-curvature="0"
       id="path3687"
       style="opacity:1;fill:#333333;fill-opacity:1;stroke:#000000;stroke-width:2.95149446;stroke-linecap:butt;stroke-linejoin:miter;stroke-miterlimit:4;stroke-dasharray:none;stroke-dashoffset:0;stroke-opacity:1"
       d="m 325.10669,163.394 a 1.1439352,0.33215121 0 1 1 -2.28787,0 1.1439352,0.33215121 0 1 1 2.28787,0 z" /><path
       inkscape:connector-curvature="0"
       id="path3689"
       style="opacity:1;fill:#333333;fill-opacity:1;stroke:#000000;stroke-width:2.95149446;stroke-linecap:butt;stroke-linejoin:miter;stroke-miterlimit:4;stroke-dasharray:none;stroke-dashoffset:0;stroke-opacity:1"
       d="m 325.10669,162.55063 a 1.1439352,0.33215121 0 1 1 -2.28787,0 1.1439352,0.33215121 0 1 1 2.28787,0 z" /><path
       inkscape:connector-curvature="0"
       id="path3691"
       style="opacity:1;fill:#333333;fill-opacity:1;stroke:#000000;stroke-width:2.95149446;stroke-linecap:butt;stroke-linejoin:miter;stroke-miterlimit:4;stroke-dasharray:none;stroke-dashoffset:0;stroke-opacity:1"
       d="m 325.10669,165.92408 a 1.1439352,0.33215121 0 1 1 -2.28787,0 1.1439352,0.33215121 0 1 1 2.28787,0 z" /><path
       inkscape:connector-curvature="0"
       id="path3693"
       style="opacity:1;fill:#333333;fill-opacity:1;stroke:#000000;stroke-width:2.95149446;stroke-linecap:butt;stroke-linejoin:miter;stroke-miterlimit:4;stroke-dasharray:none;stroke-dashoffset:0;stroke-opacity:1"
       d="m 325.10669,165.08072 a 1.1439352,0.33215121 0 1 1 -2.28787,0 1.1439352,0.33215121 0 1 1 2.28787,0 z" /><path
       inkscape:connector-curvature="0"
       id="path3695"
       style="opacity:1;fill:#333333;fill-opacity:1;stroke:#000000;stroke-width:2.95149446;stroke-linecap:butt;stroke-linejoin:miter;stroke-miterlimit:4;stroke-dasharray:none;stroke-dashoffset:0;stroke-opacity:1"
       d="m 325.10669,164.23735 a 1.1439352,0.33215121 0 1 1 -2.28787,0 1.1439352,0.33215121 0 1 1 2.28787,0 z" /><path
       inkscape:connector-curvature="0"
       id="path3697"
       style="opacity:1;fill:#333333;fill-opacity:1;stroke:#000000;stroke-width:2.95149446;stroke-linecap:butt;stroke-linejoin:miter;stroke-miterlimit:4;stroke-dasharray:none;stroke-dashoffset:0;stroke-opacity:1"
       d="m 325.10669,166.76743 a 1.1439352,0.33215121 0 1 1 -2.28787,0 1.1439352,0.33215121 0 1 1 2.28787,0 z" /><rect
       id="rect3701"
       style="opacity:1;fill:#333333;fill-opacity:1;stroke:#000000;stroke-width:2.95149446;stroke-linecap:butt;stroke-linejoin:miter;stroke-miterlimit:4;stroke-dasharray:none;stroke-dashoffset:0;stroke-opacity:1"
       y="161.54903"
       x="339.50262"
       height="5.4389753"
       width="0.80748355" /><path
       inkscape:connector-curvature="0"
       id="path3703"
       style="opacity:1;fill:#333333;fill-opacity:1;stroke:#000000;stroke-width:2.95149446;stroke-linecap:butt;stroke-linejoin:miter;stroke-miterlimit:4;stroke-dasharray:none;stroke-dashoffset:0;stroke-opacity:1"
       d="m 341.05031,163.394 a 1.1439352,0.33215121 0 1 1 -2.28787,0 1.1439352,0.33215121 0 1 1 2.28787,0 z" /><path
       inkscape:connector-curvature="0"
       id="path3705"
       style="opacity:1;fill:#333333;fill-opacity:1;stroke:#000000;stroke-width:2.95149446;stroke-linecap:butt;stroke-linejoin:miter;stroke-miterlimit:4;stroke-dasharray:none;stroke-dashoffset:0;stroke-opacity:1"
       d="m 341.05031,162.55063 a 1.1439352,0.33215121 0 1 1 -2.28787,0 1.1439352,0.33215121 0 1 1 2.28787,0 z" /><path
       inkscape:connector-curvature="0"
       id="path3707"
       style="opacity:1;fill:#333333;fill-opacity:1;stroke:#000000;stroke-width:2.95149446;stroke-linecap:butt;stroke-linejoin:miter;stroke-miterlimit:4;stroke-dasharray:none;stroke-dashoffset:0;stroke-opacity:1"
       d="m 341.05031,165.92408 a 1.1439352,0.33215121 0 1 1 -2.28787,0 1.1439352,0.33215121 0 1 1 2.28787,0 z" /><path
       inkscape:connector-curvature="0"
       id="path3709"
       style="opacity:1;fill:#333333;fill-opacity:1;stroke:#000000;stroke-width:2.95149446;stroke-linecap:butt;stroke-linejoin:miter;stroke-miterlimit:4;stroke-dasharray:none;stroke-dashoffset:0;stroke-opacity:1"
       d="m 341.05031,165.08072 a 1.1439352,0.33215121 0 1 1 -2.28787,0 1.1439352,0.33215121 0 1 1 2.28787,0 z" /><path
       inkscape:connector-curvature="0"
       id="path3711"
       style="opacity:1;fill:#333333;fill-opacity:1;stroke:#000000;stroke-width:2.95149446;stroke-linecap:butt;stroke-linejoin:miter;stroke-miterlimit:4;stroke-dasharray:none;stroke-dashoffset:0;stroke-opacity:1"
       d="m 341.05031,164.23735 a 1.1439352,0.33215121 0 1 1 -2.28787,0 1.1439352,0.33215121 0 1 1 2.28787,0 z" /><path
       inkscape:connector-curvature="0"
       id="path3713"
       style="opacity:1;fill:#333333;fill-opacity:1;stroke:#000000;stroke-width:2.95149446;stroke-linecap:butt;stroke-linejoin:miter;stroke-miterlimit:4;stroke-dasharray:none;stroke-dashoffset:0;stroke-opacity:1"
       d="m 341.05031,166.76743 a 1.1439352,0.33215121 0 1 1 -2.28787,0 1.1439352,0.33215121 0 1 1 2.28787,0 z" /><path
       id="path3715"
       d="M 358.14568,139.5386 H 332.1639 l 23.25043,-5.76591 h 2.84614"
       style="fill:none;fill-rule:evenodd;stroke:#000000;stroke-width:2.95149446;stroke-linecap:butt;stroke-linejoin:miter;stroke-miterlimit:4;stroke-dasharray:none;stroke-opacity:1"
       inkscape:connector-curvature="0" /><path
       id="path3717"
       d="m 354.51052,139.39694 -4.43871,-4.1081 -4.41958,4.09039 -2.58287,-2.39049 -2.67854,2.47903"
       style="fill:none;fill-rule:evenodd;stroke:#000000;stroke-width:2.95149446;stroke-linecap:butt;stroke-linejoin:miter;stroke-miterlimit:4;stroke-dasharray:none;stroke-opacity:1"
       inkscape:connector-curvature="0" /><path
       inkscape:connector-curvature="0"
       id="path3721"
       style="fill:none;fill-rule:evenodd;stroke:#000000;stroke-width:2.95149446;stroke-linecap:butt;stroke-linejoin:miter;stroke-miterlimit:4;stroke-dasharray:none;stroke-opacity:1"
       d="M 375.37482,228.37228 358.60585,117.26335" /><path
       inkscape:connector-curvature="0"
       id="path3723"
       style="fill:none;fill-rule:evenodd;stroke:#000000;stroke-width:2.95149446;stroke-linecap:butt;stroke-linejoin:miter;stroke-miterlimit:4;stroke-dasharray:none;stroke-opacity:1"
       d="m 375.5775,228.76937 -17.18227,-9.1813 14.52373,-7.76073 -14.52971,-7.76392 12.40309,-6.62757 -12.24349,-6.54228 10.36087,-5.53631 -10.67353,-5.70338 9.26628,-4.95142 -9.20995,-4.92131 7.6823,-4.10503 -7.69399,-4.11126 6.67881,-3.5688 -6.57929,-3.51563 5.50851,-2.94346 -5.63215,-3.00952 4.64089,-2.47985 -4.56507,-2.43934 3.80947,-2.03558 -3.74359,-2.00038 3.04847,-1.62894 -2.96905,-1.5865 2.65806,-1.42033 -2.65423,-1.41828 2.23796,-1.19584 -2.25732,-1.20619 1.93161,-1.03215 -1.97099,-1.82419 1.48881,-1.37791 -1.5193,-1.40613 1.17969,-1.09182 -1.16181,-1.07528 0.7506,-1.20324 -0.77983,-0.72174 0.63694,-0.58951 -0.64346,-0.59554 0.50047,-0.46319" /><path
       inkscape:connector-curvature="0"
       id="path3725"
       style="fill:none;fill-rule:evenodd;stroke:#000000;stroke-width:2.95149446;stroke-linecap:butt;stroke-linejoin:miter;stroke-miterlimit:4;stroke-dasharray:none;stroke-opacity:1"
       d="m 375.5775,228.76937 -17.18227,-9.1813 14.52373,-7.76073 -14.52971,-7.76392 12.40309,-6.62757 -12.24349,-6.54228 10.36087,-5.53631 -10.67353,-5.70338 9.26628,-4.95142 -9.20995,-4.92131 7.6823,-4.10503 -7.69399,-4.11126 6.67881,-3.5688 -6.57929,-3.51563 5.50851,-2.94346 -5.63215,-3.00952 4.64089,-2.47985 -4.56507,-2.43934 3.80947,-2.03558 -3.74359,-2.00038 3.04847,-1.62894 -2.96905,-1.5865 2.65806,-1.42033 -2.65423,-1.41828 2.23796,-1.19584 -2.25732,-1.20619 1.93161,-1.03215 -1.97099,-1.82419 1.48881,-1.37791 -1.5193,-1.40613 1.17969,-1.09182 -1.16181,-1.07528 0.7506,-1.20324 -0.77983,-0.72174 0.63694,-0.58951 -0.64346,-0.59554 0.50047,-0.46319" /><path
       inkscape:connector-curvature="0"
       id="path3727"
       style="fill:none;fill-rule:evenodd;stroke:#000000;stroke-width:2.95149446;stroke-linecap:butt;stroke-linejoin:miter;stroke-miterlimit:4;stroke-dasharray:none;stroke-opacity:1"
       d="m 375.5775,228.76937 -17.18227,-9.1813 14.52373,-7.76073 -14.52971,-7.76392 12.40309,-6.62757 -12.24349,-6.54228 10.36087,-5.53631 -10.67353,-5.70338 9.26628,-4.95142 -9.20995,-4.92131 7.6823,-4.10503 -7.69399,-4.11126 6.67881,-3.5688 -6.57929,-3.51563 5.50851,-2.94346 -5.63215,-3.00952 4.64089,-2.47985 -4.56507,-2.43934 3.80947,-2.03558 -3.74359,-2.00038 3.04847,-1.62894 -2.96905,-1.5865 2.65806,-1.42033 -2.65423,-1.41828 2.23796,-1.19584 -2.25732,-1.20619 1.93161,-1.03215 -1.97099,-1.82419 1.48881,-1.37791 -1.5193,-1.40613 1.17969,-1.09182 -1.16181,-1.07528 0.7506,-1.20324 -0.77983,-0.72174 0.63694,-0.58951 -0.64346,-0.59554 0.50047,-0.46319" /><path
       inkscape:connector-curvature="0"
       id="path3729"
       style="fill:none;fill-rule:evenodd;stroke:#000000;stroke-width:2.95149446;stroke-linecap:butt;stroke-linejoin:miter;stroke-miterlimit:4;stroke-dasharray:none;stroke-opacity:1"
       d="m 358.28519,161.47278 h 36.46299 l -30.60471,-7.58971 h -5.85828" /><path
       inkscape:connector-curvature="0"
       id="path3731"
       style="fill:none;fill-rule:evenodd;stroke:#000000;stroke-width:2.95149446;stroke-linecap:butt;stroke-linejoin:miter;stroke-miterlimit:4;stroke-dasharray:none;stroke-opacity:1"
       d="m 365.46643,161.2984 5.81386,-5.38083 5.81387,5.38083 3.43776,-3.18171 3.48832,3.2285 2.02221,-1.87159" /><g
       id="g3733"
       style="fill:#333333;stroke:#000000;stroke-width:36.65630722;stroke-miterlimit:4;stroke-dasharray:none"
       transform="matrix(-0.08369528,0,0,0.07746144,386.61192,130.20418)"><rect
         id="rect3735"
         style="opacity:1;fill:#333333;fill-opacity:1;stroke:#000000;stroke-width:36.65630722;stroke-linecap:butt;stroke-linejoin:miter;stroke-miterlimit:4;stroke-dasharray:none;stroke-dashoffset:0;stroke-opacity:1"
         y="122.67102"
         x="33.787605"
         height="70.215263"
         width="9.6478987" /><path
         inkscape:connector-curvature="0"
         id="path3737"
         style="opacity:1;fill:#333333;fill-opacity:1;stroke:#000000;stroke-width:36.65630722;stroke-linecap:butt;stroke-linejoin:miter;stroke-miterlimit:4;stroke-dasharray:none;stroke-dashoffset:0;stroke-opacity:1"
         transform="translate(7.791877,-84.19395)"
         d="m 44.487535,230.68277 a 13.667858,4.2879555 0 1 1 -27.335715,0 13.667858,4.2879555 0 1 1 27.335715,0 z" /><path
         inkscape:connector-curvature="0"
         id="path3739"
         style="opacity:1;fill:#333333;fill-opacity:1;stroke:#000000;stroke-width:36.65630722;stroke-linecap:butt;stroke-linejoin:miter;stroke-miterlimit:4;stroke-dasharray:none;stroke-dashoffset:0;stroke-opacity:1"
         transform="translate(7.791877,-95.08144)"
         d="m 44.487535,230.68277 a 13.667858,4.2879555 0 1 1 -27.335715,0 13.667858,4.2879555 0 1 1 27.335715,0 z" /><path
         inkscape:connector-curvature="0"
         id="path3741"
         style="opacity:1;fill:#333333;fill-opacity:1;stroke:#000000;stroke-width:36.65630722;stroke-linecap:butt;stroke-linejoin:miter;stroke-miterlimit:4;stroke-dasharray:none;stroke-dashoffset:0;stroke-opacity:1"
         transform="translate(7.791877,-51.5315)"
         d="m 44.487535,230.68277 a 13.667858,4.2879555 0 1 1 -27.335715,0 13.667858,4.2879555 0 1 1 27.335715,0 z" /><path
         inkscape:connector-curvature="0"
         id="path3743"
         style="opacity:1;fill:#333333;fill-opacity:1;stroke:#000000;stroke-width:36.65630722;stroke-linecap:butt;stroke-linejoin:miter;stroke-miterlimit:4;stroke-dasharray:none;stroke-dashoffset:0;stroke-opacity:1"
         transform="translate(7.791877,-62.41897)"
         d="m 44.487535,230.68277 a 13.667858,4.2879555 0 1 1 -27.335715,0 13.667858,4.2879555 0 1 1 27.335715,0 z" /><path
         inkscape:connector-curvature="0"
         id="path3745"
         style="opacity:1;fill:#333333;fill-opacity:1;stroke:#000000;stroke-width:36.65630722;stroke-linecap:butt;stroke-linejoin:miter;stroke-miterlimit:4;stroke-dasharray:none;stroke-dashoffset:0;stroke-opacity:1"
         transform="translate(7.791877,-73.30649)"
         d="m 44.487535,230.68277 a 13.667858,4.2879555 0 1 1 -27.335715,0 13.667858,4.2879555 0 1 1 27.335715,0 z" /><path
         inkscape:connector-curvature="0"
         id="path3747"
         style="opacity:1;fill:#333333;fill-opacity:1;stroke:#000000;stroke-width:36.65630722;stroke-linecap:butt;stroke-linejoin:miter;stroke-miterlimit:4;stroke-dasharray:none;stroke-dashoffset:0;stroke-opacity:1"
         transform="translate(7.791877,-40.64403)"
         d="m 44.487535,230.68277 a 13.667858,4.2879555 0 1 1 -27.335715,0 13.667858,4.2879555 0 1 1 27.335715,0 z" /></g><g
       id="g3749"
       style="fill:#333333;stroke:#000000;stroke-width:36.65630722;stroke-miterlimit:4;stroke-dasharray:none"
       transform="matrix(-0.08369528,0,0,0.07746144,395.9064,152.04056)"><rect
         id="rect3751"
         style="opacity:1;fill:#333333;fill-opacity:1;stroke:#000000;stroke-width:36.65630722;stroke-linecap:butt;stroke-linejoin:miter;stroke-miterlimit:4;stroke-dasharray:none;stroke-dashoffset:0;stroke-opacity:1"
         y="122.67102"
         x="33.787605"
         height="70.215263"
         width="9.6478987" /><path
         inkscape:connector-curvature="0"
         id="path3753"
         style="opacity:1;fill:#333333;fill-opacity:1;stroke:#000000;stroke-width:36.65630722;stroke-linecap:butt;stroke-linejoin:miter;stroke-miterlimit:4;stroke-dasharray:none;stroke-dashoffset:0;stroke-opacity:1"
         transform="translate(7.791877,-84.19395)"
         d="m 44.487535,230.68277 a 13.667858,4.2879555 0 1 1 -27.335715,0 13.667858,4.2879555 0 1 1 27.335715,0 z" /><path
         inkscape:connector-curvature="0"
         id="path3755"
         style="opacity:1;fill:#333333;fill-opacity:1;stroke:#000000;stroke-width:36.65630722;stroke-linecap:butt;stroke-linejoin:miter;stroke-miterlimit:4;stroke-dasharray:none;stroke-dashoffset:0;stroke-opacity:1"
         transform="translate(7.791877,-95.08144)"
         d="m 44.487535,230.68277 a 13.667858,4.2879555 0 1 1 -27.335715,0 13.667858,4.2879555 0 1 1 27.335715,0 z" /><path
         inkscape:connector-curvature="0"
         id="path3757"
         style="opacity:1;fill:#333333;fill-opacity:1;stroke:#000000;stroke-width:36.65630722;stroke-linecap:butt;stroke-linejoin:miter;stroke-miterlimit:4;stroke-dasharray:none;stroke-dashoffset:0;stroke-opacity:1"
         transform="translate(7.791877,-51.5315)"
         d="m 44.487535,230.68277 a 13.667858,4.2879555 0 1 1 -27.335715,0 13.667858,4.2879555 0 1 1 27.335715,0 z" /><path
         inkscape:connector-curvature="0"
         id="path3759"
         style="opacity:1;fill:#333333;fill-opacity:1;stroke:#000000;stroke-width:36.65630722;stroke-linecap:butt;stroke-linejoin:miter;stroke-miterlimit:4;stroke-dasharray:none;stroke-dashoffset:0;stroke-opacity:1"
         transform="translate(7.791877,-62.41897)"
         d="m 44.487535,230.68277 a 13.667858,4.2879555 0 1 1 -27.335715,0 13.667858,4.2879555 0 1 1 27.335715,0 z" /><path
         inkscape:connector-curvature="0"
         id="path3761"
         style="opacity:1;fill:#333333;fill-opacity:1;stroke:#000000;stroke-width:36.65630722;stroke-linecap:butt;stroke-linejoin:miter;stroke-miterlimit:4;stroke-dasharray:none;stroke-dashoffset:0;stroke-opacity:1"
         transform="translate(7.791877,-73.30649)"
         d="m 44.487535,230.68277 a 13.667858,4.2879555 0 1 1 -27.335715,0 13.667858,4.2879555 0 1 1 27.335715,0 z" /><path
         inkscape:connector-curvature="0"
         id="path3763"
         style="opacity:1;fill:#333333;fill-opacity:1;stroke:#000000;stroke-width:36.65630722;stroke-linecap:butt;stroke-linejoin:miter;stroke-miterlimit:4;stroke-dasharray:none;stroke-dashoffset:0;stroke-opacity:1"
         transform="translate(7.791877,-40.64403)"
         d="m 44.487535,230.68277 a 13.667858,4.2879555 0 1 1 -27.335715,0 13.667858,4.2879555 0 1 1 27.335715,0 z" /></g><g
       id="g3765"
       style="fill:#333333;stroke:#000000;stroke-width:36.65630722;stroke-miterlimit:4;stroke-dasharray:none"
       transform="matrix(-0.08369528,0,0,0.07746144,379.96277,152.04056)"><rect
         id="rect3767"
         style="opacity:1;fill:#333333;fill-opacity:1;stroke:#000000;stroke-width:36.65630722;stroke-linecap:butt;stroke-linejoin:miter;stroke-miterlimit:4;stroke-dasharray:none;stroke-dashoffset:0;stroke-opacity:1"
         y="122.67102"
         x="33.787605"
         height="70.215263"
         width="9.6478987" /><path
         inkscape:connector-curvature="0"
         id="path3769"
         style="opacity:1;fill:#333333;fill-opacity:1;stroke:#000000;stroke-width:36.65630722;stroke-linecap:butt;stroke-linejoin:miter;stroke-miterlimit:4;stroke-dasharray:none;stroke-dashoffset:0;stroke-opacity:1"
         transform="translate(7.791877,-84.19395)"
         d="m 44.487535,230.68277 a 13.667858,4.2879555 0 1 1 -27.335715,0 13.667858,4.2879555 0 1 1 27.335715,0 z" /><path
         inkscape:connector-curvature="0"
         id="path3771"
         style="opacity:1;fill:#333333;fill-opacity:1;stroke:#000000;stroke-width:36.65630722;stroke-linecap:butt;stroke-linejoin:miter;stroke-miterlimit:4;stroke-dasharray:none;stroke-dashoffset:0;stroke-opacity:1"
         transform="translate(7.791877,-95.08144)"
         d="m 44.487535,230.68277 a 13.667858,4.2879555 0 1 1 -27.335715,0 13.667858,4.2879555 0 1 1 27.335715,0 z" /><path
         inkscape:connector-curvature="0"
         id="path3773"
         style="opacity:1;fill:#333333;fill-opacity:1;stroke:#000000;stroke-width:36.65630722;stroke-linecap:butt;stroke-linejoin:miter;stroke-miterlimit:4;stroke-dasharray:none;stroke-dashoffset:0;stroke-opacity:1"
         transform="translate(7.791877,-51.5315)"
         d="m 44.487535,230.68277 a 13.667858,4.2879555 0 1 1 -27.335715,0 13.667858,4.2879555 0 1 1 27.335715,0 z" /><path
         inkscape:connector-curvature="0"
         id="path3775"
         style="opacity:1;fill:#333333;fill-opacity:1;stroke:#000000;stroke-width:36.65630722;stroke-linecap:butt;stroke-linejoin:miter;stroke-miterlimit:4;stroke-dasharray:none;stroke-dashoffset:0;stroke-opacity:1"
         transform="translate(7.791877,-62.41897)"
         d="m 44.487535,230.68277 a 13.667858,4.2879555 0 1 1 -27.335715,0 13.667858,4.2879555 0 1 1 27.335715,0 z" /><path
         inkscape:connector-curvature="0"
         id="path3777"
         style="opacity:1;fill:#333333;fill-opacity:1;stroke:#000000;stroke-width:36.65630722;stroke-linecap:butt;stroke-linejoin:miter;stroke-miterlimit:4;stroke-dasharray:none;stroke-dashoffset:0;stroke-opacity:1"
         transform="translate(7.791877,-73.30649)"
         d="m 44.487535,230.68277 a 13.667858,4.2879555 0 1 1 -27.335715,0 13.667858,4.2879555 0 1 1 27.335715,0 z" /><path
         inkscape:connector-curvature="0"
         id="path3779"
         style="opacity:1;fill:#333333;fill-opacity:1;stroke:#000000;stroke-width:36.65630722;stroke-linecap:butt;stroke-linejoin:miter;stroke-miterlimit:4;stroke-dasharray:none;stroke-dashoffset:0;stroke-opacity:1"
         transform="translate(7.791877,-40.64403)"
         d="m 44.487535,230.68277 a 13.667858,4.2879555 0 1 1 -27.335715,0 13.667858,4.2879555 0 1 1 27.335715,0 z" /></g><path
       inkscape:connector-curvature="0"
       id="path3781"
       style="fill:none;fill-rule:evenodd;stroke:#000000;stroke-width:2.95149446;stroke-linecap:butt;stroke-linejoin:miter;stroke-miterlimit:4;stroke-dasharray:none;stroke-opacity:1"
       d="m 358.49187,139.5324 h 25.98178 l -23.25043,-5.76591 h -2.84614" /><path
       inkscape:connector-curvature="0"
       id="path3783"
       style="fill:none;fill-rule:evenodd;stroke:#000000;stroke-width:2.95149446;stroke-linecap:butt;stroke-linejoin:miter;stroke-miterlimit:4;stroke-dasharray:none;stroke-opacity:1"
       d="m 362.12703,139.39074 4.43871,-4.1081 4.41958,4.09039 2.58287,-2.39049 2.67854,2.47903" /><path
       inkscape:connector-curvature="0"
       id="path981"
       d="m 383.78406,145.14543 c 10.00805,13.97517 30.55087,21.61277 30.55087,21.61277"
       style="fill:none;fill-rule:evenodd;stroke:#000000;stroke-width:2.25503659;stroke-linecap:butt;stroke-linejoin:miter;stroke-miterlimit:4;stroke-dasharray:none;stroke-opacity:1" /><path
       inkscape:connector-curvature="0"
       id="path981-5"
       d="m 392.27105,166.98181 c 10.00805,13.97517 30.55087,21.61278 30.55087,21.61278"
       style="fill:none;fill-rule:evenodd;stroke:#000000;stroke-width:2.25503683;stroke-linecap:butt;stroke-linejoin:miter;stroke-miterlimit:4;stroke-dasharray:none;stroke-opacity:1" /><path
       inkscape:connector-curvature="0"
       id="path981-5-8"
       d="m 377.13491,166.98181 c 10.00805,13.97517 30.55087,21.61278 30.55087,21.61278"
       style="fill:none;fill-rule:evenodd;stroke:#000000;stroke-width:2.25503683;stroke-linecap:butt;stroke-linejoin:miter;stroke-miterlimit:4;stroke-dasharray:none;stroke-opacity:1" /><path
       inkscape:connector-curvature="0"
       id="path981-5-87"
       d="m 338.52084,165.48793 c 10.00805,13.97517 30.55087,21.61278 30.55087,21.61278"
       style="fill:none;fill-rule:evenodd;stroke:#000000;stroke-width:2.25503683;stroke-linecap:butt;stroke-linejoin:miter;stroke-miterlimit:4;stroke-dasharray:none;stroke-opacity:1" /><path
       inkscape:connector-curvature="0"
       id="path981-5-879"
       d="m 325.10669,166.76743 c 10.00805,13.97517 30.55087,21.61278 30.55087,21.61278"
       style="fill:none;fill-rule:evenodd;stroke:#000000;stroke-width:2.25503683;stroke-linecap:butt;stroke-linejoin:miter;stroke-miterlimit:4;stroke-dasharray:none;stroke-opacity:1" /><path
       inkscape:connector-curvature="0"
       id="path981-5-0"
       d="m 332.85349,145.15163 c 10.00805,13.97517 30.55087,21.61278 30.55087,21.61278"
       style="fill:none;fill-rule:evenodd;stroke:#000000;stroke-width:2.25503683;stroke-linecap:butt;stroke-linejoin:miter;stroke-miterlimit:4;stroke-dasharray:none;stroke-opacity:1" /></g></g></svg>