<?xml version="1.0" encoding="UTF-8" standalone="no"?>
<!-- Generator: Adobe Illustrator 11.0, SVG Export Plug-In  -->

<!-- hand edited from http://commons.wikimedia.org/wiki/Image:1_9_2_44.svg -->

<svg
   xmlns:dc="http://purl.org/dc/elements/1.1/"
   xmlns:cc="http://creativecommons.org/ns#"
   xmlns:rdf="http://www.w3.org/1999/02/22-rdf-syntax-ns#"
   xmlns:svg="http://www.w3.org/2000/svg"
   xmlns="http://www.w3.org/2000/svg"
   xmlns:sodipodi="http://sodipodi.sourceforge.net/DTD/sodipodi-0.dtd"
   xmlns:inkscape="http://www.inkscape.org/namespaces/inkscape"
   width="50"
   height="50"
   viewBox="140 90 33.75 33.75"
   xml:space="preserve"
   id="svg2"
   version="1.0"
   sodipodi:docname="I_Accommodation.svg"
   inkscape:version="0.92.3 (2405546, 2018-03-11)"><title
   id="title989">NACE Section I Classification Visual</title><defs
   id="defs5729"><filter
     style="color-interpolation-filters:sRGB"
     inkscape:label="Cross-smooth"
     id="filter4556"><feGaussianBlur
       in="SourceGraphic"
       stdDeviation="10"
       result="blur1"
       id="feGaussianBlur4540" /><feComposite
       in="blur1"
       in2="blur1"
       operator="in"
       result="composite1"
       id="feComposite4542" /><feComposite
       k4="0"
       k3="0"
       k1="0"
       in="composite1"
       in2="composite1"
       k2="1"
       operator="arithmetic"
       result="composite2"
       id="feComposite4544" /><feColorMatrix
       in="composite2"
       values="1 0 0 0 0 0 1 0 0 0 0 0 1 0 0 0 0 0 10 0 "
       result="colormatrix1"
       id="feColorMatrix4546" /><feGaussianBlur
       stdDeviation="1"
       result="blur2"
       id="feGaussianBlur4548" /><feColorMatrix
       in="blur2"
       values="1 0 0 0 0 0 1 0 0 0 0 0 1 0 0 0 0 0 5 -1 "
       result="colormatrix2"
       id="feColorMatrix4550" /><feBlend
       in="SourceGraphic"
       in2="colormatrix2"
       stdDeviation="17"
       mode="normal"
       result="blend"
       id="feBlend4552" /><feComposite
       in="blend"
       in2="colormatrix2"
       operator="in"
       result="composite3"
       id="feComposite4554" /></filter></defs><sodipodi:namedview
   pagecolor="#ffffff"
   bordercolor="#666666"
   borderopacity="1"
   objecttolerance="10"
   gridtolerance="10"
   guidetolerance="10"
   inkscape:pageopacity="0"
   inkscape:pageshadow="2"
   inkscape:window-width="1853"
   inkscape:window-height="1012"
   id="namedview5727"
   showgrid="false"
   inkscape:zoom="2.36"
   inkscape:cx="-228.6017"
   inkscape:cy="-20.338978"
   inkscape:window-x="0"
   inkscape:window-y="0"
   inkscape:window-maximized="0"
   inkscape:current-layer="g11986" /><metadata
   id="metadata19"><rdf:RDF><cc:Work
       rdf:about=""><cc:license
         rdf:resource="http://creativecommons.org/licenses/by-sa/2.5/" /><dc:format>image/svg+xml</dc:format><dc:type
         rdf:resource="http://purl.org/dc/dcmitype/StillImage" /><dc:title>NACE Section I Classification Visual</dc:title><dc:creator><cc:Agent><dc:title>Open Risk</dc:title></cc:Agent></dc:creator><dc:publisher><cc:Agent><dc:title>https://www.openriskmanagement.com</dc:title></cc:Agent></dc:publisher><dc:identifier>I_Accomodation_Square</dc:identifier><dc:date>2018</dc:date><dc:rights><cc:Agent><dc:title>Creative Commons Attribution + Share-Alike  (CC-BY-SA)</dc:title></cc:Agent></dc:rights><dc:description>Fork and spoon and person sleeping as indicative of the accomodation and food service business sectors</dc:description></cc:Work><cc:License
       rdf:about="http://creativecommons.org/licenses/by-sa/2.5/"><cc:permits
         rdf:resource="http://web.resource.org/cc/Reproduction" /><cc:permits
         rdf:resource="http://web.resource.org/cc/Distribution" /><cc:requires
         rdf:resource="http://web.resource.org/cc/Notice" /><cc:requires
         rdf:resource="http://web.resource.org/cc/Attribution" /><cc:permits
         rdf:resource="http://web.resource.org/cc/DerivativeWorks" /><cc:requires
         rdf:resource="http://web.resource.org/cc/ShareAlike" /></cc:License></rdf:RDF></metadata>
	
<g
   id="g11986"
   transform="matrix(0.14398343,0,0,0.15557073,109.34664,83.778741)"><g
     id="g8823"><path
       transform="matrix(12.430403,3.6446806,-3.9379922,11.504555,696.49032,-701.48418)"
       d="m 2.8782125,83.503339 c -0.1537059,0.169885 -10.6788155,3.561778 -10.9027935,3.513608 -0.223978,-0.04817 -8.423998,-7.467237 -8.49427,-7.685293 -0.07027,-0.218056 2.254817,-11.029014 2.408523,-11.1989 0.153706,-0.169885 10.6788153,-3.561778 10.9027933,-3.513607 0.223978,0.04817 8.4239982,7.467236 8.4942703,7.685292 0.070272,0.218056 -2.2548173,11.029014 -2.4085231,11.1989 z"
       inkscape:randomized="0"
       inkscape:rounded="0.02"
       inkscape:flatsided="true"
       sodipodi:arg2="1.2590385"
       sodipodi:arg1="0.73543977"
       sodipodi:r2="5.7274847"
       sodipodi:r1="11.45497"
       sodipodi:cy="75.818047"
       sodipodi:cx="-5.6160579"
       sodipodi:sides="6"
       id="path872-7"
       style="opacity:1;fill:#ffffff;fill-opacity:1;stroke:#000000;stroke-width:0.87425816;stroke-miterlimit:4;stroke-dasharray:none;stroke-opacity:1"
       sodipodi:type="star" /><g
       id="g7065"><path
         d="m 289.05507,185.20185 c 7.20644,-0.0151 13.06326,-5.43569 13.09737,-12.12185 -0.0341,-6.69166 -5.89093,-12.11224 -13.09737,-12.12322 -7.24501,0.011 -13.10183,5.43293 -13.09293,12.12322 -0.0104,6.68616 5.84792,12.10675 13.09293,12.12185 z"
         id="path2-9"
         inkscape:connector-curvature="0"
         style="stroke-width:1.4268117" /><path
         d="M 289.05507,173.08"
         id="path4-6"
         inkscape:connector-curvature="0"
         style="stroke-width:1.4268117" /><path
         d="m 303.03489,175.90491 v 10.48565 h -20.08432 c -9.71588,0.0631 -9.72922,11.60985 0,11.59612 h 26.35196 c 3.85313,0.0137 6.26467,-2.85922 6.26615,-6.09318 v -15.98859 c -0.003,-8.73691 -12.51747,-8.73691 -12.53379,0 z"
         id="path6-5"
         inkscape:connector-curvature="0"
         style="stroke-width:1.4268117" /><path
         d="M 328.90484,129.06331"
         id="path8-7"
         inkscape:connector-curvature="0"
         style="stroke-width:1.4268117" /><path
         d="M 328.90484,129.06331"
         id="path10-4"
         inkscape:connector-curvature="0"
         style="stroke-width:1.4268117" /><path
         d="m 317.25795,169.65936 h 52.30051 c 7.70329,-0.0165 12.22382,4.55582 12.21196,10.70802 v 17.47518 h -64.51247 z"
         id="path12-3"
         inkscape:connector-curvature="0"
         style="stroke-width:1.4268117" /><path
         d="m 273.46903,159.54707 c -0.0148,-9.53578 -14.30908,-9.53578 -14.2987,0 v 76.43998 h 14.62053 V 216.2827 h 111.19346 v 19.55611 H 399.2059 V 176.7985 c 0.0371,-10.05876 -14.41438,-10.05876 -14.38027,0 v 23.56973 h -111.3566 z"
         id="path14-9"
         inkscape:connector-curvature="0"
         style="stroke-width:1.4268117" /><path
         d="M 329.22667,145.94001"
         id="path22-4"
         inkscape:connector-curvature="0"
         style="stroke-width:1.4268117" /><g
         transform="matrix(1.0496075,0,0,0.97143009,299.59982,60.905507)"
         id="g904"><path
           style="clip-rule:evenodd;fill-rule:evenodd"
           inkscape:connector-curvature="0"
           d="M 82.64,91.498 53.633,48.559 59.604,37.466 h 7.677 c 0.562,0 1.134,-0.571 1.705,-1.143 L 83.212,11.591 C 84.338,9.029 81.214,7.888 80.079,9.878 L 67.28,30.646 c -1.705,2.562 -5.686,0.571 -3.418,-2.854 L 76.098,6.746 c 1.134,-1.99 -1.713,-3.98 -3.41,-1.42 L 60.452,25.801 c -1.99,3.426 -5.399,0.293 -3.98,-1.697 L 68.414,3.059 c 1.42,-2.562 -1.42,-4.274 -2.562,-1.99 L 50.786,24.952 c -0.571,1.142 -0.571,1.713 -0.285,1.99 l 3.98,7.113 -5.122,7.684 -5.115,-7.406 c 0,0 7.398,-8.81 -2.847,-20.475 C 31.445,1.917 22.913,-1.771 18.933,1.068 15.801,3.336 14.667,14.429 21.209,26.942 27.75,39.749 36.846,38.036 39.13,37.759 l 5.971,10.522 -27.587,42.94 c -2.562,3.98 0,6.819 1.704,7.668 1.705,0.864 5.408,1.99 7.962,-2.839 L 49.36,55.949 73.822,97.47 c 1.419,2.283 4.544,3.409 6.827,1.712 1.134,-0.849 4.552,-3.703 1.991,-7.684"
           id="path902" /></g></g></g></g></svg>