<?xml version="1.0" encoding="UTF-8" standalone="no"?>
<!-- Generator: Adobe Illustrator 11.0, SVG Export Plug-In  -->

<!-- hand edited from http://commons.wikimedia.org/wiki/Image:1_9_2_44.svg -->

<svg
   xmlns:dc="http://purl.org/dc/elements/1.1/"
   xmlns:cc="http://creativecommons.org/ns#"
   xmlns:rdf="http://www.w3.org/1999/02/22-rdf-syntax-ns#"
   xmlns:svg="http://www.w3.org/2000/svg"
   xmlns="http://www.w3.org/2000/svg"
   xmlns:sodipodi="http://sodipodi.sourceforge.net/DTD/sodipodi-0.dtd"
   xmlns:inkscape="http://www.inkscape.org/namespaces/inkscape"
   width="50"
   height="50"
   viewBox="140 90 33.75 33.75"
   xml:space="preserve"
   id="svg2"
   version="1.0"
   sodipodi:docname="L_RealEstate.svg"
   inkscape:version="0.92.3 (2405546, 2018-03-11)"><title
   id="title989">NACE Section L Classification Visual</title><defs
   id="defs5729" /><sodipodi:namedview
   pagecolor="#ffffff"
   bordercolor="#666666"
   borderopacity="1"
   objecttolerance="10"
   gridtolerance="10"
   guidetolerance="10"
   inkscape:pageopacity="0"
   inkscape:pageshadow="2"
   inkscape:window-width="1853"
   inkscape:window-height="1012"
   id="namedview5727"
   showgrid="false"
   inkscape:zoom="2.36"
   inkscape:cx="-228.6017"
   inkscape:cy="-20.338978"
   inkscape:window-x="0"
   inkscape:window-y="0"
   inkscape:window-maximized="0"
   inkscape:current-layer="g11986" /><metadata
   id="metadata19"><rdf:RDF><cc:Work
       rdf:about=""><cc:license
         rdf:resource="http://creativecommons.org/licenses/by-sa/2.5/" /><dc:format>image/svg+xml</dc:format><dc:type
         rdf:resource="http://purl.org/dc/dcmitype/StillImage" /><dc:title>NACE Section L Classification Visual</dc:title><dc:creator><cc:Agent><dc:title>Open Risk</dc:title></cc:Agent></dc:creator><dc:publisher><cc:Agent><dc:title>https://www.openriskmanagement.com</dc:title></cc:Agent></dc:publisher><dc:identifier>L_RealEstate_Square</dc:identifier><dc:date>2018</dc:date><dc:rights><cc:Agent><dc:title>Creative Commons Attribution + Share-Alike  (CC-BY-SA)</dc:title></cc:Agent></dc:rights><dc:description>Home as representative of the real estate industry</dc:description></cc:Work><cc:License
       rdf:about="http://creativecommons.org/licenses/by-sa/2.5/"><cc:permits
         rdf:resource="http://web.resource.org/cc/Reproduction" /><cc:permits
         rdf:resource="http://web.resource.org/cc/Distribution" /><cc:requires
         rdf:resource="http://web.resource.org/cc/Notice" /><cc:requires
         rdf:resource="http://web.resource.org/cc/Attribution" /><cc:permits
         rdf:resource="http://web.resource.org/cc/DerivativeWorks" /><cc:requires
         rdf:resource="http://web.resource.org/cc/ShareAlike" /></cc:License></rdf:RDF></metadata>
	
<g
   id="g11986"
   transform="matrix(0.14398343,0,0,0.15557073,109.34664,83.778741)"><g
     id="g10938"><path
       transform="matrix(12.430403,3.6446806,-3.9379922,11.504555,699.94698,-687.0599)"
       d="m 2.8782125,83.503339 c -0.1537059,0.169885 -10.6788155,3.561778 -10.9027935,3.513608 -0.223978,-0.04817 -8.423998,-7.467237 -8.49427,-7.685293 -0.07027,-0.218056 2.254817,-11.029014 2.408523,-11.1989 0.153706,-0.169885 10.6788153,-3.561778 10.9027933,-3.513607 0.223978,0.04817 8.4239982,7.467236 8.4942703,7.685292 0.070272,0.218056 -2.2548173,11.029014 -2.4085231,11.1989 z"
       inkscape:randomized="0"
       inkscape:rounded="0.02"
       inkscape:flatsided="true"
       sodipodi:arg2="1.2590385"
       sodipodi:arg1="0.73543977"
       sodipodi:r2="5.7274847"
       sodipodi:r1="11.45497"
       sodipodi:cy="75.818047"
       sodipodi:cx="-5.6160579"
       sodipodi:sides="6"
       id="path872-7"
       style="opacity:1;fill:#ffffff;fill-opacity:1;stroke:#000000;stroke-width:0.87425816;stroke-miterlimit:4;stroke-dasharray:none;stroke-opacity:1"
       sodipodi:type="star" /><g
       style="clip-rule:evenodd;fill:#000000;fill-rule:evenodd;image-rendering:optimizeQuality;shape-rendering:geometricPrecision;text-rendering:geometricPrecision"
       id="Layer_x0020_1"
       transform="matrix(0.86526915,0,0,0.80082171,240.66369,73.848441)"><metadata
         id="CorelCorpID_0Corel-Layer" /><path
         style="fill:#000000"
         id="path7"
         d="m 208.781,194.328 h -20.2721 c 0,-10.1362 -11.5888,-18.2655 -34.7667,-24.4233 -9.7898,-2.6293 -31.2725,-6.4345 -64.4482,-11.4507 -23.1775,-3.5286 -34.7667,-7.0571 -34.7667,-10.6547 0,-5.8118 14.218,-10.5167 42.6541,-14.1833 H 69.7141 C 41.278,136.141 27.06,141.192 27.06,148.8371 c 0,6.8148 8.164,12.419 24.5271,16.8125 15.1521,3.5286 30.2694,7.0224 45.4214,10.551 16.3284,4.6702 24.5272,10.6895 24.5272,18.1274 H 1.2187 V 97.742 H 43.4924 V 73.1115 L 37.9225,77.6779 26.4722,61.3495 104.9999,0.6722 128.8005,19.0067 V 0.6722 h 21.5171 v 35.1471 l 32.9334,25.5302 -11.4507,16.3284 -5.5695,-4.5664 V 97.742 h 42.5504 v 96.586 z M 177.37,61.661 146.8583,37.7566 V 3.7858 H 131.9481 V 26.3063 L 104.9997,5.1002 32.3181,61.661 l 6.6077,9.4441 8.7176,-7.2994 v 68.807 H 69.7141 V 76.467 h 27.4673 v 56.1457 h 64.8633 v -68.807 l 8.7176,7.2994 z m -28.0904,48.4659 H 113.1984 V 76.467 h 36.0812 z"
         class="fil0"
         inkscape:connector-curvature="0" /></g></g></g></svg>