<?xml version="1.0" encoding="UTF-8" standalone="no"?>
<!-- Generator: Adobe Illustrator 11.0, SVG Export Plug-In  -->

<!-- hand edited from http://commons.wikimedia.org/wiki/Image:1_9_2_44.svg -->

<svg
   xmlns:dc="http://purl.org/dc/elements/1.1/"
   xmlns:cc="http://creativecommons.org/ns#"
   xmlns:rdf="http://www.w3.org/1999/02/22-rdf-syntax-ns#"
   xmlns:svg="http://www.w3.org/2000/svg"
   xmlns="http://www.w3.org/2000/svg"
   xmlns:sodipodi="http://sodipodi.sourceforge.net/DTD/sodipodi-0.dtd"
   xmlns:inkscape="http://www.inkscape.org/namespaces/inkscape"
   width="50"
   height="50"
   viewBox="140 90 33.75 33.75"
   xml:space="preserve"
   id="svg2"
   version="1.0"
   sodipodi:docname="N_Administrative.svg"
   inkscape:version="0.92.3 (2405546, 2018-03-11)"><title
   id="title989">NACE Section N Classification Visual</title><defs
   id="defs5729"><filter
     style="color-interpolation-filters:sRGB"
     inkscape:label="Cross-smooth"
     id="filter4556"><feGaussianBlur
       in="SourceGraphic"
       stdDeviation="10"
       result="blur1"
       id="feGaussianBlur4540" /><feComposite
       in="blur1"
       in2="blur1"
       operator="in"
       result="composite1"
       id="feComposite4542" /><feComposite
       k4="0"
       k3="0"
       k1="0"
       in="composite1"
       in2="composite1"
       k2="1"
       operator="arithmetic"
       result="composite2"
       id="feComposite4544" /><feColorMatrix
       in="composite2"
       values="1 0 0 0 0 0 1 0 0 0 0 0 1 0 0 0 0 0 10 0 "
       result="colormatrix1"
       id="feColorMatrix4546" /><feGaussianBlur
       stdDeviation="1"
       result="blur2"
       id="feGaussianBlur4548" /><feColorMatrix
       in="blur2"
       values="1 0 0 0 0 0 1 0 0 0 0 0 1 0 0 0 0 0 5 -1 "
       result="colormatrix2"
       id="feColorMatrix4550" /><feBlend
       in="SourceGraphic"
       in2="colormatrix2"
       stdDeviation="17"
       mode="normal"
       result="blend"
       id="feBlend4552" /><feComposite
       in="blend"
       in2="colormatrix2"
       operator="in"
       result="composite3"
       id="feComposite4554" /></filter></defs><sodipodi:namedview
   pagecolor="#ffffff"
   bordercolor="#666666"
   borderopacity="1"
   objecttolerance="10"
   gridtolerance="10"
   guidetolerance="10"
   inkscape:pageopacity="0"
   inkscape:pageshadow="2"
   inkscape:window-width="1853"
   inkscape:window-height="1012"
   id="namedview5727"
   showgrid="false"
   inkscape:zoom="2.36"
   inkscape:cx="-245.34246"
   inkscape:cy="-20.338978"
   inkscape:window-x="0"
   inkscape:window-y="0"
   inkscape:window-maximized="0"
   inkscape:current-layer="g11986" /><metadata
   id="metadata19"><rdf:RDF><cc:Work
       rdf:about=""><cc:license
         rdf:resource="http://creativecommons.org/licenses/by-sa/2.5/" /><dc:format>image/svg+xml</dc:format><dc:type
         rdf:resource="http://purl.org/dc/dcmitype/StillImage" /><dc:title>NACE Section N Classification Visual</dc:title><dc:creator><cc:Agent><dc:title>Open Risk</dc:title></cc:Agent></dc:creator><dc:publisher><cc:Agent><dc:title>https://www.openriskmanagement.com</dc:title></cc:Agent></dc:publisher><dc:identifier>N_Administrative_Square</dc:identifier><dc:date>2018</dc:date><dc:rights><cc:Agent><dc:title>Creative Commons Attribution + Share-Alike  (CC-BY-SA)</dc:title></cc:Agent></dc:rights><dc:description>Person with headset as representative of administrative and support service activities</dc:description></cc:Work><cc:License
       rdf:about="http://creativecommons.org/licenses/by-sa/2.5/"><cc:permits
         rdf:resource="http://web.resource.org/cc/Reproduction" /><cc:permits
         rdf:resource="http://web.resource.org/cc/Distribution" /><cc:requires
         rdf:resource="http://web.resource.org/cc/Notice" /><cc:requires
         rdf:resource="http://web.resource.org/cc/Attribution" /><cc:permits
         rdf:resource="http://web.resource.org/cc/DerivativeWorks" /><cc:requires
         rdf:resource="http://web.resource.org/cc/ShareAlike" /></cc:License></rdf:RDF></metadata>
	
<g
   id="g11986"
   transform="matrix(0.14398343,0,0,0.15557073,109.34664,83.778741)"><g
     id="g12676"><path
       transform="matrix(12.430403,3.6446806,-3.9379922,11.504555,700.76981,-699.92941)"
       d="m 2.8782125,83.503339 c -0.1537059,0.169885 -10.6788155,3.561778 -10.9027935,3.513608 -0.223978,-0.04817 -8.423998,-7.467237 -8.49427,-7.685293 -0.07027,-0.218056 2.254817,-11.029014 2.408523,-11.1989 0.153706,-0.169885 10.6788153,-3.561778 10.9027933,-3.513607 0.223978,0.04817 8.4239982,7.467236 8.4942703,7.685292 0.070272,0.218056 -2.2548173,11.029014 -2.4085231,11.1989 z"
       inkscape:randomized="0"
       inkscape:rounded="0.02"
       inkscape:flatsided="true"
       sodipodi:arg2="1.2590385"
       sodipodi:arg1="0.73543977"
       sodipodi:r2="5.7274847"
       sodipodi:r1="11.45497"
       sodipodi:cy="75.818047"
       sodipodi:cx="-5.6160579"
       sodipodi:sides="6"
       id="path872-7"
       style="opacity:1;fill:#ffffff;fill-opacity:1;stroke:#000000;stroke-width:0.87425816;stroke-miterlimit:4;stroke-dasharray:none;stroke-opacity:1"
       sodipodi:type="star" /><path
       sodipodi:nodetypes="scccsccccccccccccccccccccccccccccscccccccssscscssccccccccccsccccscccccccccccccccccsssscccccccccccccccccccccccccccccccccccccccc"
       style="stroke-width:1.90808523"
       id="path2-89"
       d="m 325.86387,147.9916 c 0,2.01912 1.58674,3.85479 3.7684,4.22191 -2.18166,-0.36688 -3.7684,-2.20279 -3.7684,-4.22191 -0.19846,-2.0193 1.58674,-3.85493 3.7684,-4.22205 -2.18166,0.36688 -3.7684,2.20275 -3.7684,4.22205 z m 12.89195,-2.93712 c -0.59523,-0.55084 -1.58669,-1.10139 -2.57842,-1.28493 0.99173,0.18368 1.7851,0.55084 2.57842,1.28493 z m 9.71857,-4.58912 v 0 l -9.91693,4.58912 v 0 z m 3.37169,4.58912 -13.88358,6.4248 -0.19846,0.18367 c 0.19846,0 0.3964,0 0.3964,-0.18367 z m 14.67705,-6.79191 -14.67705,6.79191 -13.88358,6.4248 c 0,0 -0.19846,0 -0.3964,0.18367 0.19846,0 0.19846,0 0.19846,-0.18367 l 13.88363,-6.4248 z m -27.96567,6.79191 c -0.59522,-0.55084 -1.58664,-1.10139 -2.38006,-1.28493 0.99173,0.18368 1.7851,0.55084 2.38006,1.28493 z m 54.34458,32.12393 v 0.73423 c -0.3964,38.91583 0.0969,60.66486 0.0969,60.66486 l -115.53037,-0.91106 c 0,0 10e-4,-20.83797 -0.39556,-59.7538 v -0.73423 c 0,-9.54545 -1.19003,-16.33736 19.43713,-21.47718 1.785,-0.55084 6.54508,-2.38633 8.13182,-2.93702 l 14.47865,-8.26038 c 1.58669,-2.20279 2.57842,-4.58912 3.37174,-6.60833 -1.58675,-1.10139 -3.37174,-2.38637 -5.55345,-4.03847 -7.3385,-5.50698 -5.75186,-9.36181 -7.73522,-14.86875 -0.79332,1.28498 -1.78499,1.1014 -3.17333,0.18368 -2.18171,1.83558 -4.95849,2.7534 -7.93357,2.7534 -6.54513,0 -11.90027,-4.95619 -11.90027,-10.83029 v -7.52619 c 0,-5.139766 3.7684,-9.361768 8.92524,-10.646746 1.19003,-20.92643 16.26364,-33.959601 40.06419,-33.959601 23.80056,0 38.87427,13.033171 39.86595,34.326717 4.95843,1.28493 8.72677,5.506932 8.72677,10.46321 v 7.52615 c 0,5.13981 -3.76834,9.36182 -8.92513,10.46321 v 0.91786 l -2.18171,8.62754 c -0.59517,2.75344 -3.17344,5.69057 -5.95011,6.79191 v 0 0 l -14.67705,6.79187 -13.88363,6.42479 -0.19846,0.18368 h -0.3964 -0.19846 c -0.19846,0 -0.3964,0 -0.79338,0.18368 -0.99167,0.18368 -2.77667,0.18368 -5.95016,0.55084 v 0 h -0.79332 c -2.18171,-0.36688 -3.7684,-2.20274 -3.7684,-4.22191 0,-2.01925 1.58669,-3.85488 3.7684,-4.22205 h 0.79332 4.76013 0.99168 c 0.99173,0.18368 1.78505,0.55089 2.38006,1.28498 v 0 0 l 9.91687,-4.58989 15.47038,-7.15902 c 1.19003,-0.55085 2.38006,-2.01921 2.77672,-3.12061 l 1.98336,-8.44401 c -1.78505,-0.36687 -3.57005,-1.28493 -4.95844,-2.38632 -1.19003,1.10139 -2.38006,1.28493 -3.17339,0 -1.78504,5.50698 -0.39639,9.36182 -7.73521,14.86875 -2.18171,1.46856 -3.7684,2.93702 -5.5534,4.03842 0.19846,0.36687 0.19846,0.73428 0.3964,1.1014 l -9.12355,4.03846 c -0.99167,-0.73432 -2.18171,-1.10139 -3.5701,-1.10139 h -4.76007 c -3.37175,0 -6.14852,2.56986 -6.14852,5.69051 0,3.12056 2.77677,5.69047 6.14852,5.69047 h 0.19846 c 6.54518,-0.36688 7.53685,-0.73423 7.93351,-0.91782 l 14.677,-6.79191 12.09864,6.9755 c 1.58669,0.55089 6.14846,2.38627 8.13182,2.93702 20.62715,4.95624 19.43711,11.74815 19.43711,21.29359 z m -21.22212,-58.92436 c 4.56178,1.46847 9.7185,-1.65214 10.31352,-7.34266 0.19846,-2.20279 0.19846,-4.58916 0,-6.79191 -0.3964,-5.506976 -5.75174,-8.811116 -10.31352,-7.342604 2.38007,6.975494 2.38007,14.318104 0,21.477174 z M 354.22614,69.4257 c 6.14847,3.854838 11.30531,10.83033 11.70192,22.578475 0,0.734329 0,1.46856 0.19846,2.202792 1.58669,-0.734232 3.17344,-1.28493 4.95844,-1.28493 C 370.29164,80.439612 364.34152,72.91347 354.22625,69.4257 Z m -56.12958,27.351176 c -4.56178,-1.468512 -9.71852,1.652142 -10.31353,7.342604 -0.19846,2.20275 -0.19846,4.58912 0,6.79191 0.3964,5.50694 5.75175,8.81113 10.31353,7.34266 -2.38007,-7.15907 -2.38007,-14.50168 0,-21.477174 z m 17.25542,-27.167594 c -9.71857,3.671256 -15.47037,11.197495 -16.06539,23.312755 1.78505,0.183679 3.37179,0.550891 4.76008,1.28493 0,-0.734232 0,-1.468463 0.19846,-2.202792 0.19846,-11.748145 5.15679,-18.356473 11.10695,-22.394893 z m 23.40384,75.445198 v 0 c -0.79332,-0.55084 -1.58669,-1.10139 -2.57842,-1.28493 0.99173,0.18368 1.7851,0.55084 2.57842,1.28493 z m 27.76731,-6.79191 -14.67705,6.79191 -13.88358,6.4248 c 0,0 -0.19846,0 -0.3964,0.18367 0.19846,0 0.19846,0 0.19846,-0.18367 l 13.88363,-6.4248 z"
       inkscape:connector-curvature="0" /></g></g></svg>