<?xml version="1.0" encoding="UTF-8" standalone="no"?>
<!-- Generator: Adobe Illustrator 11.0, SVG Export Plug-In  -->

<!-- hand edited from http://commons.wikimedia.org/wiki/Image:1_9_2_44.svg -->

<svg
   xmlns:dc="http://purl.org/dc/elements/1.1/"
   xmlns:cc="http://creativecommons.org/ns#"
   xmlns:rdf="http://www.w3.org/1999/02/22-rdf-syntax-ns#"
   xmlns:svg="http://www.w3.org/2000/svg"
   xmlns="http://www.w3.org/2000/svg"
   xmlns:sodipodi="http://sodipodi.sourceforge.net/DTD/sodipodi-0.dtd"
   xmlns:inkscape="http://www.inkscape.org/namespaces/inkscape"
   width="50"
   height="50"
   viewBox="140 90 33.75 33.75"
   xml:space="preserve"
   id="svg2"
   version="1.0"
   sodipodi:docname="R_Recreation.svg"
   inkscape:version="0.92.3 (2405546, 2018-03-11)"><title
   id="title989">NACE Section R Classification Visual</title><defs
   id="defs5729" /><sodipodi:namedview
   pagecolor="#ffffff"
   bordercolor="#666666"
   borderopacity="1"
   objecttolerance="10"
   gridtolerance="10"
   guidetolerance="10"
   inkscape:pageopacity="0"
   inkscape:pageshadow="2"
   inkscape:window-width="1853"
   inkscape:window-height="1012"
   id="namedview5727"
   showgrid="false"
   inkscape:zoom="2.36"
   inkscape:cx="-228.6017"
   inkscape:cy="-20.338978"
   inkscape:window-x="0"
   inkscape:window-y="0"
   inkscape:window-maximized="0"
   inkscape:current-layer="g11986" /><metadata
   id="metadata19"><rdf:RDF><cc:Work
       rdf:about=""><cc:license
         rdf:resource="http://creativecommons.org/licenses/by-sa/2.5/" /><dc:format>image/svg+xml</dc:format><dc:type
         rdf:resource="http://purl.org/dc/dcmitype/StillImage" /><dc:title>NACE Section R Classification Visual</dc:title><dc:creator><cc:Agent><dc:title>Open Risk</dc:title></cc:Agent></dc:creator><dc:publisher><cc:Agent><dc:title>https://www.openriskmanagement.com</dc:title></cc:Agent></dc:publisher><dc:identifier>R_Recreation_Square</dc:identifier><dc:date>2018</dc:date><dc:rights><cc:Agent><dc:title>Creative Commons Attribution + Share-Alike  (CC-BY-SA)</dc:title></cc:Agent></dc:rights><dc:description>People sitting in front of a screen as representative of the arts, entertainment and recreation sectors</dc:description></cc:Work><cc:License
       rdf:about="http://creativecommons.org/licenses/by-sa/2.5/"><cc:permits
         rdf:resource="http://web.resource.org/cc/Reproduction" /><cc:permits
         rdf:resource="http://web.resource.org/cc/Distribution" /><cc:requires
         rdf:resource="http://web.resource.org/cc/Notice" /><cc:requires
         rdf:resource="http://web.resource.org/cc/Attribution" /><cc:permits
         rdf:resource="http://web.resource.org/cc/DerivativeWorks" /><cc:requires
         rdf:resource="http://web.resource.org/cc/ShareAlike" /></cc:License></rdf:RDF></metadata>
	
<g
   id="g11986"
   transform="matrix(0.14398343,0,0,0.15557073,109.34664,83.778741)"><g
     id="g1803"><path
       transform="matrix(12.430403,3.6446806,-3.9379922,11.504555,705.36589,-708.49105)"
       d="m 2.8782125,83.503339 c -0.1537059,0.169885 -10.6788155,3.561778 -10.9027935,3.513608 -0.223978,-0.04817 -8.423998,-7.467237 -8.49427,-7.685293 -0.07027,-0.218056 2.254817,-11.029014 2.408523,-11.1989 0.153706,-0.169885 10.6788153,-3.561778 10.9027933,-3.513607 0.223978,0.04817 8.4239982,7.467236 8.4942703,7.685292 0.070272,0.218056 -2.2548173,11.029014 -2.4085231,11.1989 z"
       inkscape:randomized="0"
       inkscape:rounded="0.02"
       inkscape:flatsided="true"
       sodipodi:arg2="1.2590385"
       sodipodi:arg1="0.73543977"
       sodipodi:r2="5.7274847"
       sodipodi:r1="11.45497"
       sodipodi:cy="75.818047"
       sodipodi:cx="-5.6160579"
       sodipodi:sides="6"
       id="path872-7"
       style="opacity:1;fill:#ffffff;fill-opacity:1;stroke:#000000;stroke-width:0.87425816;stroke-miterlimit:4;stroke-dasharray:none;stroke-opacity:1"
       sodipodi:type="star" /><g
       id="g13100"><path
         inkscape:connector-curvature="0"
         id="path6-6"
         d="m 254.52344,136.88268 c -1.65909,-10.02209 13.89463,-13.06504 16.38421,-2.82359 l 4.26622,19.57738 15.83624,0.0404 c 4.62269,0 7.03643,3.38691 7.03643,6.59482 v 26.59688 c 0,6.47197 -9.95453,6.42986 -9.95453,-0.12285 0,-6.08765 0,-20.68821 0,-20.68821 h -20.23709 c -4.72508,0 -7.68869,-2.98855 -8.42816,-6.41582 z"
         style="stroke-width:1.82412148" /><polygon
         id="polygon8-1"
         points="14.734,19.379 14.734,24.824 105.07,54.879 105.094,19.379 "
         transform="matrix(1.8961009,0,0,1.7548745,219.83048,32.871269)" /><path
         inkscape:connector-curvature="0"
         id="path10-7"
         d="m 261.92961,126.09196 c 5.14033,0 9.34778,-3.86599 9.34778,-8.60942 0.0588,-4.75746 -4.11834,-8.66557 -9.30228,-8.66557 -5.14032,-0.0404 -9.34777,3.81159 -9.34777,8.56905 -0.0455,4.79959 4.11833,8.66558 9.30227,8.70594 z"
         style="stroke-width:1.82412148" /><path
         inkscape:connector-curvature="0"
         id="path12-8"
         d="m 244.11005,147.24697 c -1.11111,-5.56646 6.75391,-6.89666 7.86503,-1.31616 l 3.48124,17.42591 c 0.78499,3.63259 3.65947,6.71766 7.77781,7.88289 1.24384,0.3422 2.54836,0.38432 3.7922,0.4668 l 11.43538,0.0404 c 6.05804,-0.0404 6.05804,7.37574 -0.0436,7.37574 l -12.04403,-0.0404 c -1.85249,0 -3.70309,-0.25972 -5.55558,-0.78092 -7.08004,-1.9602 -12.02886,-7.3617 -13.33148,-13.66872 z"
         style="stroke-width:1.82412148" /><path
         inkscape:connector-curvature="0"
         id="path14-2"
         d="m 316.19033,155.52822 c -1.67426,-9.99401 13.87946,-13.02468 16.42782,-2.79727 l 4.20744,19.57738 h 15.83624 c 4.63597,0 7.03643,3.42727 7.03643,6.59482 v 26.61092 c 0,6.47197 -9.95453,6.47197 -9.95453,-0.0965 0,-6.07362 0,-20.72858 0,-20.72858 h -20.22002 c -4.68147,0 -7.64318,-3.00259 -8.38456,-6.42986 z"
         style="stroke-width:1.82412148" /><path
         inkscape:connector-curvature="0"
         id="path16-9"
         d="m 323.59839,144.72346 c 5.14033,0.0404 9.34778,-3.81159 9.34778,-8.56905 0.0436,-4.79783 -4.11833,-8.65153 -9.25866,-8.6919 -5.18394,0 -9.34778,3.85195 -9.39139,8.60942 -0.002,4.75922 4.16194,8.65153 9.30227,8.65153 z"
         style="stroke-width:1.82412148" /><path
         inkscape:connector-curvature="0"
         id="path18-6"
         d="m 305.77694,165.91883 c -1.11111,-5.55242 6.79942,-6.88261 7.86503,-1.37055 l 3.51158,17.4803 c 0.78498,3.60627 3.65947,6.7317 7.7323,7.84254 1.30451,0.3422 2.59197,0.38431 3.85098,0.46679 l 11.42021,0.0965 c 6.07321,-0.0544 6.0296,7.3617 -0.0891,7.32134 l -12.02887,-0.0404 c -1.80698,0 -3.65947,-0.21936 -5.51007,-0.72652 -7.12554,-1.97424 -12.08764,-7.41786 -13.37699,-13.70908 z"
         style="stroke-width:1.82412148" /><path
         inkscape:connector-curvature="0"
         id="path20-5"
         d="m 377.90272,174.18605 c -1.70269,-10.02209 13.89463,-13.01064 16.38421,-2.8236 l 4.26623,19.57738 15.83623,0.0404 c 4.57719,0 6.99282,3.42727 6.99282,6.60885 v 26.59688 c 0,6.47198 -9.95453,6.42986 -9.95453,-0.12284 0,-6.08766 0,-20.70225 0,-20.70225 h -20.19347 c -4.72508,0 -7.68869,-2.98855 -8.42817,-6.41582 z"
         style="stroke-width:1.82412148" /><path
         inkscape:connector-curvature="0"
         id="path22-94"
         d="m 385.26528,163.41112 c 5.18394,0 9.34778,-3.86599 9.39139,-8.62345 0,-4.74343 -4.16194,-8.65154 -9.30227,-8.65154 -5.14033,-0.0404 -9.34778,3.81159 -9.34778,8.56906 -0.0436,4.79782 4.11833,8.64977 9.25866,8.70593 z"
         style="stroke-width:1.82412148" /><path
         inkscape:connector-curvature="0"
         id="path24-3"
         d="m 367.44573,184.56438 c -1.08078,-5.58051 6.79942,-6.9107 7.91053,-1.3302 l 3.48124,17.4259 c 0.78499,3.64663 3.64431,6.77207 7.77781,7.89694 1.24384,0.32992 2.53319,0.38432 3.7922,0.4668 l 11.43538,0.0404 c 6.05805,-0.0404 6.01444,7.3617 -0.10428,7.3617 l -11.98336,-0.0825 c -1.85249,0 -3.70308,-0.20532 -5.55558,-0.72652 -7.08004,-1.93387 -12.02886,-7.3617 -13.33148,-13.66872 z"
         style="stroke-width:1.82412148" /></g></g></g></svg>